<?xml version="1.0" encoding="utf-8"?>
<!-- Generator: Adobe Illustrator 16.0.0, SVG Export Plug-In . SVG Version: 6.00 Build 0)  -->
<!DOCTYPE svg PUBLIC "-//W3C//DTD SVG 1.1//EN" "http://www.w3.org/Graphics/SVG/1.1/DTD/svg11.dtd">
<svg version="1.1" id="Layer_1" xmlns="http://www.w3.org/2000/svg" xmlns:xlink="http://www.w3.org/1999/xlink" x="0px" y="0px"
	 width="72.587px" height="50px" viewBox="0 0 72.587 50" enable-background="new 0 0 72.587 50" xml:space="preserve">
<g>
	<path fill="#030303" d="M46.667,18.144c-1.063,1.093-1.547,2.461-2.155,3.76c-0.335,0.714-0.68,1.423-1.118,2.081
		c-0.102,0.152-0.217,0.298-0.343,0.43c-0.183,0.189-0.398,0.23-0.602,0.039c-0.1-0.094-0.184-0.101-0.285-0.034
		c-0.118,0.078-0.14,0.193-0.075,0.312c0.062,0.113,0.138,0.219,0.215,0.321c0.12,0.16,0.148,0.322,0.076,0.517
		c-0.075,0.201-0.239,0.193-0.396,0.2c-0.433,0.018-0.864,0.043-1.298,0.003c-0.173-0.016-0.213-0.079-0.176-0.242
		c0.092-0.411,0.159-0.829,0.266-1.236c0.082-0.31,0.035-0.563-0.172-0.811c-0.242-0.29-0.474-0.591-0.656-0.925
		c-0.175-0.316-0.226-0.636-0.129-0.997c0.324-1.221,0.69-2.433,0.892-3.683c0.142-0.887,0.159-1.788,0.334-2.672
		c0.2-1.015,0.514-1.984,1.053-2.874c0.026-0.044,0.038-0.098,0.059-0.149c-0.24-0.083-0.38,0.07-0.52,0.2
		c-0.3,0.281-0.591,0.572-0.887,0.857c-0.119,0.113-0.229,0.168-0.298-0.052c-0.039-0.127-0.141-0.174-0.269-0.197
		c-0.374-0.071-0.513-0.315-0.381-0.678c0.146-0.396,0.355-0.764,0.57-1.125c0.288-0.482,0.587-0.959,0.899-1.426
		c0.265-0.395,0.761-0.525,1.167-0.282c0.32,0.191,0.53,0.11,0.758-0.138c0.609-0.664,1.114-1.409,1.672-2.123
		c0.044,0.064,0.084,0.122,0.136,0.197c0.85-1.107,1.711-2.189,2.647-3.208c1.08-1.174,2.217-2.284,3.592-3.119
		c0.594-0.361,1.219-0.653,1.911-0.772C53.393,0.276,53.572,0.105,53.833,0c-0.178,0.535-0.337,1.038-0.687,1.449
		c-0.273,0.322-0.641,0.436-1.05,0.393c-0.151-0.017-0.235,0.025-0.325,0.14c-1.672,2.115-3.273,4.28-4.882,6.442
		c-0.062,0.082-0.165,0.164-0.029,0.271c0.118,0.092,0.222,0.099,0.343-0.013c0.527-0.481,1.057-0.96,1.595-1.431
		c1.558-1.359,3.129-2.703,4.867-3.834c0.063-0.041,0.131-0.076,0.19-0.121c1-0.736,2.125-0.91,3.353-0.732
		c-0.184,0.402-0.357,0.816-0.67,1.152c-0.136,0.146-0.298,0.263-0.51,0.246c-1.495-0.117-2.604,0.635-3.612,1.605
		c-0.94,0.905-1.698,1.962-2.459,3.016c-0.322,0.447-0.641,0.898-0.974,1.338c-0.112,0.149-0.155,0.229,0.02,0.387
		c0.569,0.512,0.669,1.023,0.372,1.725c-0.04,0.095-0.124,0.18-0.208,0.243c-0.251,0.188-0.281,0.414-0.15,0.685
		c0.085,0.175,0.143,0.364,0.242,0.529c0.448,0.743,0.208,1.482,0.01,2.226c-0.026,0.099-0.09,0.145-0.174,0.173
		c-0.114,0.037-0.226,0.075-0.342,0.1c-0.535,0.111-0.535,0.109-0.461,0.491c0.098,0.506,0.287,0.65,0.744,0.569
		c0.043-0.007,0.09-0.004,0.128-0.021c1.029-0.453,2.053-0.168,3.078,0.021c3.019,0.559,6.046,1.075,9.054,1.685
		c2.677,0.543,5.362,1.063,7.964,1.924c0.174,0.058,0.337,0.151,0.512,0.197c0.753,0.197,1.026,0.753,1.139,1.453
		c0.114,0.712,0.065,1.428,0.055,2.14c-0.008,0.488,0.116,0.912,0.361,1.32c0.34,0.564,0.706,1.111,0.972,1.719
		c0.326,0.744,0.347,1.508,0.211,2.29c-0.035,0.203-0.089,0.289-0.334,0.195c-0.633-0.244-1.3-0.412-1.76-1.089
		c-0.173,0.936-0.323,1.771-0.481,2.604c-0.492,2.579-1.011,5.153-1.808,7.661c-0.149,0.468-0.371,0.896-0.607,1.32
		c-0.184,0.331-0.364,0.662-0.549,0.992c-0.11,0.197-0.123,0.387,0.021,0.574c0.255,0.333,0.093,0.656-0.146,0.971
		c-0.219,0.287-0.497,0.278-0.782,0.127c-0.95-0.508-1.985-0.708-3.036-0.864c-0.196-0.029-0.272-0.009-0.257,0.212
		c0.135,1.807-0.255,3.555-0.649,5.294c-0.183,0.797-0.697,1.456-1.156,2.123c-0.141,0.205-0.292,0.062-0.381-0.079
		c-0.155-0.244-0.188-0.526-0.205-0.809c-0.096-1.458,0.187-2.859,0.608-4.245c0.195-0.641,0.338-1.296,0.527-1.938
		c0.1-0.339-0.008-0.577-0.286-0.746c-0.239-0.146-0.495-0.263-0.761-0.401c-0.214,0.571-0.27,1.152-0.348,1.727
		c-0.102,0.751-0.203,1.499-0.517,2.2c-0.204,0.46-0.489,0.859-0.834,1.226c-0.196,0.209-0.323,0.141-0.394-0.074
		c-0.164-0.496-0.272-1.005-0.114-1.525c0.256-0.848,0.509-1.696,0.785-2.538c0.136-0.415,0.091-0.834,0.11-1.254
		c0.009-0.188-0.127-0.196-0.243-0.24c-1.57-0.591-3.181-1.049-4.817-1.406c-1.699-0.372-3.408-0.694-5.111-1.051
		c-0.236-0.05-0.315,0.004-0.354,0.24c-0.175,1.066-0.233,2.149-0.472,3.207c-0.17,0.759-0.317,1.522-0.581,2.257
		c-0.196,0.546-0.484,1.039-0.886,1.459c-0.276,0.289-0.433,0.253-0.676-0.065c-0.43-0.563-0.261-1.189-0.24-1.812
		c0.06-1.796,0.703-3.464,1.102-5.186c0.007-0.031,0.03-0.062,0.029-0.092c-0.002-0.217,0.234-0.476-0.081-0.637
		c-0.281-0.143-0.707,0.002-0.885,0.289c-0.24,0.386-0.3,0.829-0.384,1.263c-0.157,0.806-0.257,1.625-0.647,2.365
		c-0.045,0.086-0.085,0.178-0.146,0.251c-0.083,0.101-0.111,0.273-0.302,0.248c-0.204-0.027-0.338-0.135-0.402-0.328
		c-0.117-0.348-0.125-0.699-0.025-1.053c0.193-0.686,0.393-1.371,0.581-2.059c0.171-0.627,0.029-0.854-0.591-0.987
		c-0.609-0.131-0.962-0.655-0.755-1.239c0.211-0.598,0.515-1.163,0.763-1.748c0.732-1.726,1.367-3.489,1.545-5.365
		c0.248-2.61,1.123-5.078,1.641-7.626c0.05-0.243,0.088-0.493,0.173-0.725c0.12-0.324,0.036-0.575-0.217-0.775
		c-0.584-0.463-0.671-1.076-0.551-1.757C46.664,18.637,46.681,18.404,46.667,18.144 M68.891,29.997
		c0.031-0.091,0.065-0.182,0.094-0.274c0.565-1.801,0.924-3.619,0.577-5.521c-0.067-0.372-0.181-0.681-0.443-0.939
		c-0.328-0.323-0.716-0.56-1.122-0.766c-1.437-0.729-2.976-1.163-4.523-1.568c-2.219-0.581-4.479-0.959-6.735-1.357
		c-1.573-0.278-3.135-0.646-4.755-0.565c-0.478,0.024-0.878,0.113-1.299,0.36c-0.652,0.383-1.136,0.85-1.3,1.604
		c-0.017,0.073-0.054,0.142-0.079,0.212c-0.781,2.154-1.596,4.304-1.755,6.617c-0.053,0.757-0.084,1.499-0.445,2.185
		c-0.206,0.432-0.321,0.894-0.444,1.352c-0.395,1.472-0.591,2.988-0.988,4.459c-0.071,0.265-0.017,0.347,0.239,0.421
		c2.273,0.661,4.577,1.194,6.893,1.679c4.344,0.909,8.721,1.66,13.008,2.826c0.197,0.054,0.269,0.004,0.325-0.176
		c0.308-0.979,0.634-1.952,0.936-2.934c0.269-0.877,0.567-1.746,0.696-2.661c0.081-0.566,0.117-1.14,0.263-1.696
		C68.315,32.167,68.603,31.083,68.891,29.997 M41.666,21.7c0.044-0.007,0.068-0.003,0.083-0.014c0.431-0.3,0.803-0.7,1.363-0.774
		c0.084-0.011,0.103-0.105,0.139-0.17c0.275-0.479,0.599-0.925,0.916-1.375c0.734-1.041,1.481-2.068,1.945-3.276
		c0.521-1.359,0.9-2.769,1.49-4.104c0.121-0.274,0.061-0.644-0.192-0.864c-0.381-0.334-0.801-0.624-1.21-0.926
		c-0.138-0.103-0.292-0.18-0.476-0.18c-0.304-0.002-0.604-0.051-0.898-0.119c-0.115-0.026-0.191-0.026-0.255,0.11
		c-0.396,0.854-0.927,1.634-1.369,2.462c-0.354,0.661-0.6,1.347-0.647,2.115c-0.11,1.767-0.167,3.541-0.617,5.271
		C41.781,20.454,41.677,21.07,41.666,21.7"/>
	<path fill="#050505" d="M29.13,38.044c-0.773,0.845-1.731,1.077-2.815,0.962c-1.129-0.121-2.051-0.801-2.32-1.746
		c-0.311-1.09,0.07-2.203,1.007-2.908c0.952-0.715,2.066-0.961,3.219-1.069c0.64-0.061,0.641-0.044,0.641-0.703
		c-0.001-1.076-0.501-1.844-1.377-2.117c-0.221-0.068-0.444-0.09-0.673-0.06c-0.53,0.069-0.685,0.304-0.536,0.812
		c0.128,0.433-0.046,0.735-0.489,0.807c-0.374,0.06-0.756,0.05-1.003-0.293c-0.259-0.362-0.168-0.744,0.038-1.101
		c0.176-0.303,0.452-0.498,0.776-0.607c1.151-0.391,2.289-0.349,3.36,0.232c1.003,0.546,1.365,1.514,1.52,2.581
		c0.121,0.83,0.05,1.665,0.062,2.498c0.011,0.77-0.005,1.538,0.005,2.308c0.006,0.585,0.214,0.739,0.774,0.6
		c0.138-0.034,0.262-0.082,0.352,0.103c0.094,0.191,0.021,0.303-0.121,0.413c-0.645,0.503-1.736,0.34-2.191-0.333
		C29.286,38.314,29.224,38.2,29.13,38.044 M28.862,35.4c0-0.498-0.008-0.909,0.003-1.319c0.006-0.181-0.038-0.246-0.231-0.226
		c-0.529,0.057-1.043,0.163-1.532,0.382c-1.122,0.502-1.645,1.414-1.501,2.624c0.093,0.775,0.624,1.36,1.288,1.421
		c0.916,0.083,1.652-0.433,1.892-1.322C28.928,36.417,28.83,35.862,28.862,35.4"/>
	<path fill="#050505" d="M7.401,39.033c-0.787,0.008-1.496-0.052-2.153-0.377c-0.728-0.359-1.079-1.032-0.912-1.717
		c0.123-0.503,0.59-0.785,1.094-0.661c0.425,0.104,0.621,0.492,0.507,1.003c-0.024,0.105-0.047,0.211-0.073,0.314
		c-0.076,0.306,0.041,0.533,0.327,0.617c0.836,0.244,1.667,0.245,2.449-0.194c0.702-0.395,1.058-1.933,0.07-2.551
		c-0.491-0.307-1.026-0.5-1.56-0.701c-0.607-0.229-1.221-0.442-1.74-0.847c-1.113-0.867-1.151-2.436-0.073-3.349
		c0.78-0.663,1.715-0.829,2.703-0.779c0.542,0.027,1.075,0.119,1.557,0.394c0.529,0.302,0.794,0.747,0.73,1.368
		c-0.053,0.514-0.466,0.779-1.048,0.674c-0.489-0.09-0.743-0.45-0.562-0.929c0.179-0.474,0.021-0.749-0.568-0.813
		c-0.433-0.048-0.862-0.044-1.276,0.12c-0.548,0.217-0.839,0.626-0.894,1.204c-0.052,0.545,0.239,0.896,0.677,1.159
		c0.533,0.318,1.131,0.478,1.706,0.693c0.374,0.14,0.741,0.292,1.095,0.479c1.877,0.985,1.461,3.356,0.206,4.22
		C8.957,38.846,8.167,39.005,7.401,39.033"/>
	<path fill="#050505" d="M1.716,38.794c-0.455,0-0.91,0.006-1.364-0.004c-0.107-0.002-0.277,0.08-0.312-0.071
		C0,38.537-0.032,38.331,0.11,38.162c0.026-0.031,0.069-0.061,0.108-0.068c0.589-0.119,0.641-0.521,0.638-1.041
		c-0.021-3.096-0.017-6.192-0.002-9.288c0.001-0.388-0.119-0.615-0.488-0.72C0.21,27,0.061,26.944,0.024,26.745
		c-0.065-0.366-0.016-0.432,0.354-0.432c0.899,0,1.797-0.005,2.695,0.004c0.109,0.001,0.298-0.093,0.32,0.099
		c0.023,0.199,0.101,0.489-0.18,0.558c-0.602,0.148-0.645,0.554-0.642,1.077c0.019,3.106,0.015,6.214,0.001,9.32
		c-0.001,0.355,0.132,0.545,0.448,0.651c0.14,0.045,0.297,0.074,0.361,0.24c0.136,0.353,0.013,0.531-0.366,0.531H1.716z"/>
	<path fill="#050505" d="M12.546,34.257c0-1.071-0.006-2.143,0.005-3.215c0.002-0.21-0.052-0.298-0.267-0.265
		c-0.085,0.012-0.177,0.018-0.259-0.003c-0.117-0.029-0.314,0.114-0.339-0.117c-0.022-0.207-0.067-0.452,0.208-0.551
		c0.465-0.168,0.614-0.53,0.65-0.985c0.032-0.409,0.097-0.815,0.143-1.224c0.024-0.209,0.113-0.33,0.34-0.356
		c0.29-0.032,0.58-0.079,0.863-0.148c0.197-0.048,0.21,0.031,0.209,0.189c-0.006,0.737,0.004,1.473-0.007,2.208
		c-0.003,0.193,0.035,0.261,0.245,0.255c0.562-0.017,1.126,0.004,1.688-0.011c0.204-0.005,0.26,0.06,0.254,0.256
		c-0.018,0.604,0.053,0.479-0.473,0.487c-0.498,0.007-0.996,0.007-1.494-0.001c-0.162-0.004-0.22,0.034-0.22,0.211
		c0.007,2.08-0.002,4.157,0.008,6.235c0.004,0.777,0.562,1.127,1.282,0.831c0.161-0.065,0.301-0.165,0.442-0.267
		c0.101-0.073,0.175-0.259,0.289-0.217c0.177,0.062,0.335,0.194,0.482,0.318c0.115,0.098-0.016,0.173-0.065,0.239
		c-0.563,0.755-1.356,0.948-2.241,0.901c-0.172-0.009-0.345-0.037-0.512-0.076c-0.833-0.196-1.229-0.695-1.231-1.546
		C12.545,36.357,12.546,35.308,12.546,34.257"/>
	<path fill="#050505" d="M20.11,32.423c0.237-0.587,0.42-1.159,0.754-1.669c0.296-0.453,0.647-0.843,1.215-0.946
		c0.466-0.085,0.867,0.049,1.152,0.426c0.28,0.372,0.252,0.795,0.08,1.202c-0.118,0.281-0.359,0.423-0.667,0.438
		c-0.307,0.015-0.499-0.138-0.639-0.405c-0.217-0.413-0.406-0.431-0.673-0.045c-0.559,0.806-0.81,1.732-0.992,2.681
		c-0.226,1.18-0.105,2.374-0.133,3.562c-0.005,0.195,0.124,0.292,0.281,0.354c0.141,0.055,0.286,0.1,0.433,0.134
		c0.3,0.072,0.269,0.306,0.245,0.517c-0.027,0.229-0.223,0.118-0.338,0.119c-0.877,0.01-1.753,0.008-2.63,0.001
		c-0.097,0-0.272,0.085-0.272-0.116c-0.001-0.17-0.099-0.435,0.134-0.483c0.658-0.136,0.603-0.607,0.6-1.095
		c-0.009-1.927-0.01-3.854,0.002-5.78c0.002-0.323-0.109-0.508-0.415-0.598c-0.129-0.038-0.276-0.07-0.323-0.235
		c-0.09-0.32,0.001-0.442,0.341-0.443c0.519,0,1.039,0.011,1.558-0.005c0.223-0.007,0.299,0.051,0.293,0.285
		c-0.017,0.594-0.006,1.189-0.006,1.784V32.423z"/>
	<path fill="#088ACB" d="M47.105,29.983c0.361-0.686,0.393-1.428,0.445-2.185c0.158-2.313,0.974-4.463,1.755-6.617
		c0.025-0.07,0.063-0.139,0.079-0.212c0.164-0.755,0.647-1.222,1.3-1.604c0.421-0.247,0.821-0.336,1.299-0.36
		c1.621-0.081,3.182,0.287,4.755,0.565c2.256,0.398,4.517,0.776,6.735,1.357c1.549,0.405,3.087,0.84,4.523,1.568
		c0.406,0.206,0.794,0.442,1.122,0.766c0.263,0.259,0.376,0.567,0.443,0.939c0.347,1.902-0.012,3.72-0.577,5.521
		c-0.028,0.093-0.063,0.184-0.094,0.274c-0.216-0.003-0.433-0.01-0.648-0.01C61.197,29.985,54.151,29.984,47.105,29.983"/>
	<path fill="#51A746" d="M47.105,29.983c7.046,0.001,14.092,0.002,21.138,0.004c0.216,0,0.433,0.007,0.648,0.01
		c-0.287,1.086-0.576,2.17-0.859,3.256c-0.146,0.557-0.182,1.13-0.263,1.696c-0.129,0.915-0.428,1.784-0.696,2.661
		c-0.301,0.981-0.628,1.955-0.936,2.934c-0.057,0.18-0.128,0.229-0.324,0.176c-4.288-1.165-8.665-1.917-13.009-2.826
		c-2.315-0.484-4.619-1.018-6.893-1.679c-0.256-0.074-0.311-0.156-0.239-0.421c0.397-1.471,0.594-2.987,0.988-4.459
		C46.784,30.877,46.899,30.415,47.105,29.983"/>
</g>
</svg>
