<?xml version="1.0" encoding="utf-8"?>
<!-- Generator: Adobe Illustrator 16.0.0, SVG Export Plug-In . SVG Version: 6.00 Build 0)  -->
<!DOCTYPE svg PUBLIC "-//W3C//DTD SVG 1.1//EN" "http://www.w3.org/Graphics/SVG/1.1/DTD/svg11.dtd">
<svg version="1.1" id="Layer_1" xmlns="http://www.w3.org/2000/svg" xmlns:xlink="http://www.w3.org/1999/xlink" x="0px" y="0px"
	 width="97.571px" height="29.878px" viewBox="0 0 97.571 29.878" enable-background="new 0 0 97.571 29.878" xml:space="preserve">
<g>
	<path fill="#E94538" d="M91.465,5.667c0.133,0.011,0.264,0.022,0.396,0.033c0.123,0.046,0.242,0.114,0.37,0.136
		c3.748,0.63,5.308,2.429,5.326,6.194c0.017,3.418,0.007,6.836,0.004,10.256c0,0.328,0.067,0.678-0.168,0.967
		c-0.41,0.5-4.077,0.412-4.353-0.17c-0.242-0.512-0.432-0.438-0.81-0.217c-1.28,0.75-2.674,1.023-4.151,0.918
		c-2.662-0.193-4.324-1.783-4.612-4.43c-0.349-3.197,0.811-5.082,3.591-5.848c1.536-0.422,3.105-0.465,4.684-0.447
		c0.334,0.002,0.748,0.146,0.9-0.385c0.417-1.455-0.462-2.73-1.998-2.781c-1.205-0.041-2.413-0.018-3.618,0.025
		c-2.476,0.09-2.45,0.104-2.462-2.367c-0.003-0.77,0.238-1.137,1.018-1.312C87.525,5.805,89.491,5.711,91.465,5.667 M92.708,17.899
		c0-0.496,0-0.898-0.002-1.301c0-0.277-0.013-0.58-0.386-0.578c-0.999,0.006-2.019-0.178-2.981,0.236
		c-0.771,0.332-1.043,0.998-1.068,1.785c-0.02,0.637-0.124,1.385,0.557,1.709c1.129,0.537,2.289,0.322,3.4-0.166
		C93.111,19.196,92.512,18.39,92.708,17.899"/>
	<path fill="#54B74A" d="M60.864,5.663c0.131,0.009,0.265,0.018,0.396,0.026c0.359,0.068,0.715,0.153,1.077,0.202
		c2.737,0.374,4.856,2.328,4.931,4.873c0.116,3.949,0.049,7.904,0.066,11.857c0.002,0.594-0.271,0.852-0.855,0.846
		c-0.839-0.01-1.677-0.004-2.514,0.004c-0.551,0.006-1.09,0.025-1.284-0.67c-0.126-0.449-0.377-0.117-0.522-0.029
		c-1.024,0.617-2.144,0.92-3.318,1.059l-0.398,0.002c-0.135,0-0.269,0-0.402,0c-0.135-0.004-0.27-0.008-0.405-0.012
		c-0.442-0.236-0.937-0.273-1.418-0.354c-0.108-0.033-0.216-0.066-0.324-0.1c-0.104-0.08-0.2-0.176-0.312-0.242
		c-2.114-1.27-2.473-3.283-2.307-5.5c0.162-2.172,1.371-3.449,3.437-4.061c1.606-0.475,3.237-0.465,4.879-0.475
		c0.315-0.002,0.681,0.098,0.847-0.34c0.495-1.322-0.355-2.695-1.775-2.875c-1.307-0.166-2.609,0.025-3.913,0.047
		c-2.494,0.039-2.47,0.066-2.408-2.455c0.019-0.758,0.353-1.043,1.044-1.202c1.344-0.309,2.718-0.365,4.068-0.597
		c0.132-0.003,0.263-0.004,0.395-0.008C60.186,5.748,60.524,5.748,60.864,5.663 M62.485,17.769c0-0.473,0-0.84,0-1.209
		c-0.002-0.293-0.074-0.545-0.434-0.545c-0.934,0.002-1.875-0.123-2.788,0.176c-0.872,0.283-1.128,0.996-1.173,1.801
		c-0.036,0.654-0.186,1.451,0.566,1.783c1.132,0.5,2.305,0.33,3.389-0.213C62.895,19.136,62.305,18.292,62.485,17.769"/>
	<path fill="#90C546" d="M48.983,21.394c-0.033,0.043-0.045,0.092-0.039,0.145c-0.995,1.674-2.562,2.256-4.404,2.314
		c-0.265-0.014-0.531-0.027-0.797-0.041c-0.467-0.143-0.934-0.285-1.402-0.426c-0.028-0.035-0.065-0.047-0.11-0.037
		c-0.884-0.625-0.506-1.561-0.55-2.375c-0.037-0.688-0.239-1.049-0.996-1.004c-0.792,0.049-1.589,0.023-2.383,0.031l-0.013-0.01
		c-0.017-0.57-0.049-1.139-0.049-1.707c-0.002-3.453,0.008-6.904,0.006-10.355c0-1.343-0.058-1.38-1.431-1.409
		c-0.356-0.008-0.777,0.146-1.096-0.237c0.217-0.258,0.457-0.235,0.681-0.236c1.34-0.006,2.682,0.032,4.02-0.021
		c0.839-0.032,1.177,0.306,1.337,1.113c0.496,2.492,1.067,4.971,1.605,7.455c0.27,1.242,0.53,2.486,0.8,3.727
		c0.079,0.361,0.161,0.807,0.622,0.779c0.394-0.025,0.413-0.467,0.51-0.779c0.019-0.064,0.024-0.133,0.039-0.197
		c0.816-3.691,1.631-7.383,2.446-11.074c0.121-0.546,0.265-1.04,0.999-1.018c1.405,0.044,2.812,0.051,4.218,0.073l-0.003-0.003
		c-0.075,1.693-0.766,3.24-1.18,4.85C50.915,14.442,49.932,17.913,48.983,21.394"/>
	<path fill="#F8B245" d="M81.652,26.222c-1.172,3.107-3.978,4.361-7.265,3.268c-0.295-0.098-0.465-0.225-0.52-0.52
		c-0.15-0.797-0.134-1.596-0.021-2.396c0.086-0.605,0.529-0.58,0.979-0.592c1.913-0.053,1.929-0.07,1.929-2.023
		c0-5.494-0.002-10.99-0.002-16.484c0-1.407,0.025-1.435,1.479-1.437c0.735,0,1.476,0.038,2.21-0.013
		c0.913-0.064,1.223,0.281,1.216,1.213c-0.034,5.863-0.019,11.727-0.016,17.59c0,0.334,0.028,0.666,0.044,1
		C81.674,25.958,81.663,26.091,81.652,26.222"/>
	<path fill="#FADD04" d="M74.377,23.007c-0.283,0.582-0.748,0.768-1.379,0.711c-0.35-0.033-0.73-0.104-1.064,0.117h-1.212
		c-1.065-0.078-1.274-0.686-1.267-1.678c0.041-6.834,0.02-13.666,0.018-20.499c0-1.644,0-1.644,1.674-1.643
		c0.67,0,1.342,0.035,2.008-0.011c0.572-0.039,0.967,0.16,1.238,0.646c-0.017,3.341-0.045,6.682-0.046,10.023
		C74.346,14.786,74.366,18.896,74.377,23.007"/>
	<path fill="#0DA6D7" d="M13.144,9.312c0.017-2.211,0.028-4.422,0.053-6.633c0.018-1.604,0.035-1.619,1.632-1.612
		c0.971,0.005,1.942,0.032,2.914,0.05c0.323,0.323,0.268,0.737,0.268,1.137c0.001,6.543,0.004,13.088,0.001,19.631
		c-0.001,1.625-0.307,1.939-1.955,1.914c-3.612-0.057-2.968,0.5-4.892-2.826c-1.846-3.191-3.7-6.381-5.556-9.566
		c-0.148-0.254-0.238-0.563-0.585-0.736c-0.295,0.291-0.169,0.67-0.17,1.002c-0.011,3.59-0.006,7.182-0.013,10.771
		c-0.002,1.268-0.1,1.354-1.389,1.357c-0.604,0-1.208,0.004-1.812,0.002C0,23.8,0,23.8,0,22.206c0-4.193,0-8.389,0.001-12.584
		c0-2.35-0.006-4.697,0.005-7.047c0.005-1.176,0.331-1.524,1.492-1.511c4.211,0.048,3.07-0.593,5.127,2.865
		c1.657,2.785,3.239,5.614,4.855,8.425c0.07,0.074,0.141,0.15,0.211,0.225l-0.018-0.014c0.014,0.174,0.082,0.316,0.237,0.408
		c0.068,0.123,0.136,0.244,0.204,0.367c0.056,0.084,0.111,0.168,0.167,0.252l-0.016-0.012c0.094,0.463,0.317,0.84,0.878,1.289
		v-4.754C13.144,9.849,13.144,9.579,13.144,9.312"/>
	<path fill="#10A6D6" d="M34.367,15.196c0,1.309-0.022,2.617,0.009,3.924c0.016,0.637-0.181,0.891-0.859,0.889
		c-0.789-0.002-1.764-0.355-2.325,0.199c-0.528,0.521-0.14,1.473-0.177,2.232c-0.02,0.395-0.041,0.713-0.491,0.867
		c-3.151,1.086-8.046,0.568-9.929-3.391c-0.394-0.828-0.637-1.705-0.711-2.605c-0.19-2.271-0.33-4.555,0.378-6.777
		c0.942-2.957,3.375-4.692,6.704-4.814c1.922-0.071,3.735,0.265,5.335,1.42c0.468,0.338,0.728,0.59-0.015,0.938
		c-0.435,0.203-1.127,0.225-1.212,0.771c-0.128,0.818-0.086,1.67-0.044,2.506c0.024,0.5,0.408,0.322,0.678,0.211
		c0.589-0.242,1.179-0.484,1.748-0.77c0.658-0.328,0.953-0.254,0.92,0.578c-0.05,1.273-0.013,2.549-0.013,3.822H34.367z
		 M28.828,10.349l-0.017-0.014c-1.655-0.936-3.455-0.244-3.884,1.635c-0.427,1.869-0.451,3.791,0.04,5.67
		c0.367,1.406,1.333,2.053,2.746,1.965c1.245-0.078,2.068-0.861,2.334-2.23c0.277-1.428,0.256-2.875,0.126-4.303
		C30.078,12.034,30.008,10.892,28.828,10.349"/>
</g>
</svg>
