<?xml version="1.0" encoding="utf-8"?>
<!-- Generator: Adobe Illustrator 16.0.0, SVG Export Plug-In . SVG Version: 6.00 Build 0)  -->
<!DOCTYPE svg PUBLIC "-//W3C//DTD SVG 1.1//EN" "http://www.w3.org/Graphics/SVG/1.1/DTD/svg11.dtd">
<svg version="1.1" id="Layer_1" xmlns="http://www.w3.org/2000/svg" xmlns:xlink="http://www.w3.org/1999/xlink" x="0px" y="0px"
	 width="290.119px" height="46.412px" viewBox="0 0 290.119 46.412" enable-background="new 0 0 290.119 46.412"
	 xml:space="preserve">
<g>
	<path fill="#05828C" d="M136.831,45.832V20.34h6.908c2.779,0,4.848,0.555,6.201,1.668c1.355,1.111,2.031,2.689,2.031,4.733
		c0,0.713-0.133,1.402-0.398,2.066c-0.266,0.664-0.641,1.27-1.125,1.813c-0.482,0.545-1.066,1.01-1.748,1.396
		c-0.684,0.389-1.449,0.652-2.295,0.799c1.053,0.107,1.99,0.328,2.82,0.66c0.828,0.334,1.529,0.762,2.104,1.289
		c0.574,0.525,1.012,1.148,1.313,1.867c0.303,0.719,0.455,1.52,0.455,2.4c0,1.09-0.188,2.055-0.563,2.895s-0.922,1.549-1.643,2.129
		c-0.717,0.582-1.598,1.023-2.637,1.324c-1.039,0.303-2.225,0.453-3.555,0.453H136.831z M137.829,32.541h6.037
		c1.281,0,2.373-0.172,3.273-0.516c0.9-0.345,1.639-0.791,2.211-1.342c0.576-0.551,0.992-1.166,1.252-1.85
		c0.26-0.681,0.391-1.357,0.391-2.021c0-1.825-0.596-3.229-1.785-4.208c-1.191-0.979-3.014-1.469-5.469-1.469h-5.91V32.541z
		 M137.829,33.303v11.713h6.871c2.383,0,4.211-0.51,5.484-1.531c1.277-1.021,1.914-2.512,1.914-4.469
		c0-0.883-0.172-1.676-0.516-2.377c-0.346-0.699-0.834-1.299-1.469-1.795c-0.637-0.494-1.408-0.875-2.322-1.141
		c-0.912-0.268-1.938-0.4-3.072-0.4H137.829z"/>
	<path fill="#05828C" d="M180.729,33.086c0,1.994-0.291,3.793-0.871,5.395s-1.395,2.967-2.447,4.098
		c-1.051,1.131-2.309,1.998-3.771,2.602c-1.463,0.605-3.082,0.906-4.859,0.906c-1.752,0-3.361-0.301-4.822-0.906
		c-1.463-0.604-2.721-1.471-3.771-2.602c-1.053-1.131-1.867-2.496-2.449-4.098c-0.58-1.602-0.869-3.4-0.869-5.395
		c0-1.982,0.289-3.777,0.869-5.384c0.582-1.607,1.396-2.977,2.449-4.108c1.051-1.131,2.309-2.004,3.771-2.619
		c1.461-0.617,3.07-0.926,4.822-0.926c1.777,0,3.396,0.307,4.859,0.916s2.721,1.48,3.771,2.611c1.053,1.129,1.867,2.499,2.447,4.108
		C180.438,29.291,180.729,31.092,180.729,33.086 M179.678,33.086c0-1.896-0.264-3.6-0.789-5.103
		c-0.525-1.504-1.27-2.784-2.232-3.834c-0.959-1.053-2.107-1.857-3.443-2.414c-1.336-0.555-2.814-0.834-4.434-0.834
		c-1.596,0-3.061,0.279-4.396,0.834c-1.336,0.557-2.484,1.361-3.445,2.414c-0.961,1.051-1.711,2.331-2.248,3.834
		c-0.539,1.503-0.807,3.207-0.807,5.103c0,1.898,0.268,3.6,0.807,5.104c0.537,1.506,1.287,2.777,2.248,3.816
		c0.961,1.041,2.109,1.838,3.445,2.395s2.801,0.834,4.396,0.834c1.619,0,3.098-0.277,4.434-0.834s2.484-1.354,3.443-2.395
		c0.963-1.039,1.707-2.311,2.232-3.816C179.415,36.686,179.678,34.984,179.678,33.086"/>
	<path fill="#05828C" d="M208.362,33.086c0,1.994-0.291,3.793-0.871,5.395s-1.396,2.967-2.447,4.098
		c-1.053,1.131-2.311,1.998-3.771,2.602c-1.463,0.605-3.084,0.906-4.859,0.906c-1.754,0-3.361-0.301-4.824-0.906
		c-1.463-0.604-2.719-1.471-3.771-2.602c-1.051-1.131-1.867-2.496-2.447-4.098c-0.582-1.602-0.871-3.4-0.871-5.395
		c0-1.982,0.289-3.777,0.871-5.384c0.58-1.607,1.396-2.977,2.447-4.108c1.053-1.131,2.309-2.004,3.771-2.619
		c1.463-0.617,3.07-0.926,4.824-0.926c1.775,0,3.396,0.307,4.859,0.916c1.461,0.609,2.719,1.48,3.771,2.611
		c1.051,1.129,1.867,2.499,2.447,4.108C208.071,29.291,208.362,31.092,208.362,33.086 M207.309,33.086
		c0-1.896-0.264-3.6-0.789-5.103c-0.525-1.504-1.27-2.784-2.23-3.834c-0.961-1.053-2.109-1.857-3.445-2.414
		c-1.334-0.555-2.813-0.834-4.432-0.834c-1.596,0-3.063,0.279-4.398,0.834c-1.336,0.557-2.482,1.361-3.445,2.414
		c-0.961,1.051-1.709,2.331-2.248,3.834c-0.537,1.503-0.807,3.207-0.807,5.103c0,1.898,0.27,3.6,0.807,5.104
		c0.539,1.506,1.287,2.777,2.248,3.816c0.963,1.041,2.109,1.838,3.445,2.395s2.803,0.834,4.398,0.834
		c1.619,0,3.098-0.277,4.432-0.834c1.336-0.557,2.484-1.354,3.445-2.395c0.961-1.039,1.705-2.311,2.23-3.816
		C207.045,36.686,207.309,34.984,207.309,33.086"/>
	<path fill="#05828C" d="M214.834,32.434h1.631c0.23,0,0.426-0.006,0.59-0.02c0.162-0.012,0.314-0.041,0.453-0.09
		s0.266-0.115,0.381-0.199s0.238-0.193,0.371-0.326l11.242-11.078c0.145-0.145,0.281-0.246,0.408-0.301
		c0.127-0.053,0.275-0.08,0.445-0.08h0.725l-11.877,11.695c-0.217,0.205-0.402,0.361-0.553,0.471
		c-0.152,0.109-0.336,0.193-0.553,0.254c0.229,0.061,0.428,0.146,0.598,0.254s0.344,0.266,0.525,0.471l12.584,12.348h-0.725
		c-0.23,0-0.4-0.027-0.508-0.082c-0.109-0.053-0.213-0.141-0.309-0.262l-11.822-11.514c-0.133-0.133-0.254-0.246-0.363-0.336
		c-0.107-0.09-0.229-0.166-0.361-0.227c-0.135-0.061-0.293-0.105-0.48-0.137c-0.188-0.029-0.428-0.045-0.717-0.045h-1.686v12.602
		h-0.998V20.34h0.998V32.434z"/>
	<rect x="235.432" y="20.34" fill="#05828C" width="0.998" height="25.492"/>
	<path fill="#05828C" d="M244.297,20.385c0.061,0.029,0.127,0.094,0.199,0.189l17.406,23.555c-0.012-0.109-0.018-0.219-0.018-0.328
		v-0.307V20.34h0.871v25.492h-0.418c-0.156,0-0.289-0.072-0.398-0.217l-17.496-23.645c0.012,0.121,0.02,0.236,0.025,0.346
		c0.008,0.107,0.01,0.211,0.01,0.307v23.209h-0.871V20.34h0.455C244.159,20.34,244.237,20.355,244.297,20.385"/>
	<path fill="#05828C" d="M286.057,45.371c-1.451,0.5-3.09,0.752-4.914,0.752c-1.994,0-3.791-0.305-5.385-0.916
		c-1.598-0.609-2.953-1.48-4.072-2.611c-1.117-1.129-1.973-2.498-2.564-4.107c-0.594-1.607-0.889-3.408-0.889-5.402
		s0.293-3.793,0.879-5.394c0.586-1.602,1.43-2.969,2.529-4.108c1.1-1.135,2.43-2.01,3.99-2.619c1.559-0.611,3.311-0.914,5.258-0.914
		c0.955,0,1.834,0.059,2.639,0.18c0.803,0.121,1.549,0.305,2.238,0.553s1.338,0.561,1.949,0.936
		c0.609,0.375,1.199,0.809,1.768,1.305l-0.254,0.379c-0.096,0.146-0.234,0.195-0.416,0.146c-0.121-0.035-0.342-0.193-0.662-0.473
		c-0.32-0.275-0.789-0.576-1.406-0.896c-0.615-0.32-1.404-0.613-2.365-0.879s-2.131-0.4-3.51-0.4c-1.775,0-3.381,0.279-4.813,0.834
		c-1.434,0.557-2.654,1.361-3.664,2.412c-1.008,1.053-1.785,2.331-2.33,3.836c-0.543,1.503-0.814,3.205-0.814,5.103
		c0,1.885,0.271,3.584,0.814,5.096c0.545,1.51,1.328,2.795,2.348,3.852c1.023,1.059,2.268,1.869,3.736,2.43
		c1.469,0.563,3.129,0.844,4.977,0.844c0.834,0,1.611-0.055,2.33-0.164c0.721-0.107,1.4-0.266,2.041-0.471s1.262-0.453,1.867-0.744
		c0.604-0.289,1.215-0.621,1.832-0.996v-7.508h-5.387c-0.084,0-0.156-0.029-0.217-0.09s-0.09-0.127-0.09-0.199v-0.508h6.617v8.703
		C288.86,44.189,287.506,44.869,286.057,45.371"/>
	<path fill="#05828C" d="M36.792,36.148v9.975H31.38V19.951h8.226c1.828,0,3.393,0.189,4.69,0.568
		c1.299,0.379,2.363,0.904,3.193,1.578c0.828,0.674,1.437,1.475,1.821,2.408c0.384,0.932,0.576,1.958,0.576,3.075
		c0,0.867-0.123,1.687-0.369,2.462c-0.247,0.775-0.604,1.483-1.074,2.119c-0.469,0.639-1.046,1.203-1.73,1.695
		c-0.686,0.494-1.473,0.891-2.363,1.191c0.35,0.191,0.676,0.424,0.984,0.695c0.306,0.27,0.58,0.592,0.819,0.965l6.098,9.414h-4.89
		c-0.912,0-1.573-0.348-1.983-1.045l-4.979-8.027c-0.203-0.313-0.429-0.541-0.675-0.686c-0.247-0.145-0.612-0.217-1.092-0.217
		H36.792z M36.792,32.344h2.777c0.879,0,1.637-0.111,2.272-0.334c0.638-0.223,1.161-0.529,1.57-0.92
		c0.408-0.391,0.71-0.852,0.901-1.379c0.192-0.531,0.289-1.107,0.289-1.732c0-1.24-0.413-2.201-1.235-2.887
		c-0.825-0.686-2.078-1.027-3.762-1.027h-2.813V32.344z"/>
	<path fill="#05828C" d="M79.102,33.029c0,1.91-0.323,3.684-0.966,5.32c-0.644,1.635-1.551,3.049-2.723,4.238
		c-1.173,1.189-2.582,2.125-4.23,2.805c-1.647,0.68-3.476,1.02-5.484,1.02c-2.008,0-3.836-0.34-5.483-1.02
		c-1.648-0.68-3.061-1.615-4.238-2.805c-1.179-1.189-2.089-2.604-2.732-4.238c-0.644-1.637-0.967-3.41-0.967-5.32
		c0-1.912,0.323-3.684,0.967-5.312c0.644-1.629,1.554-3.042,2.732-4.231c1.178-1.191,2.59-2.125,4.238-2.805
		c1.647-0.68,3.476-1.02,5.483-1.02c2.009,0,3.837,0.34,5.484,1.02c1.648,0.68,3.058,1.617,4.23,2.814
		c1.172,1.197,2.079,2.61,2.723,4.239C78.779,29.363,79.102,31.129,79.102,33.029 M73.564,33.029c0-1.371-0.181-2.602-0.541-3.689
		c-0.36-1.087-0.881-2.013-1.561-2.779c-0.68-0.762-1.502-1.346-2.472-1.749c-0.969-0.402-2.064-0.604-3.292-0.604
		c-1.226,0-2.326,0.201-3.3,0.604s-1.802,0.987-2.48,1.749c-0.68,0.766-1.2,1.691-1.561,2.779c-0.359,1.088-0.542,2.319-0.542,3.689
		c0,1.383,0.183,2.617,0.542,3.705c0.36,1.09,0.881,2.012,1.561,2.77c0.679,0.758,1.507,1.338,2.48,1.74
		c0.974,0.404,2.074,0.605,3.3,0.605c1.228,0,2.323-0.201,3.292-0.605c0.97-0.402,1.792-0.982,2.472-1.74s1.2-1.68,1.561-2.77
		C73.383,35.646,73.564,34.412,73.564,33.029"/>
	<path fill="#05828C" d="M85.912,19.979c0.162,0.018,0.309,0.061,0.44,0.125c0.134,0.066,0.26,0.154,0.379,0.262
		c0.121,0.109,0.252,0.254,0.398,0.434l13.131,16.686c-0.048-0.457-0.084-0.902-0.107-1.336c-0.025-0.432-0.036-0.842-0.036-1.227
		V19.951h4.778v26.174H102.1c-0.421,0-0.775-0.07-1.064-0.209c-0.288-0.137-0.57-0.375-0.848-0.713L87.147,28.627
		c0.035,0.421,0.063,0.833,0.08,1.236c0.019,0.402,0.028,0.779,0.028,1.127v15.135h-4.781V19.951h2.851
		C85.553,19.951,85.748,19.961,85.912,19.979"/>
	<path fill="#05828C" d="M132.79,46.123h-4.201c-0.47,0-0.852-0.111-1.146-0.332c-0.295-0.223-0.515-0.508-0.659-0.857l-1.767-4.996
		H114.59l-1.769,4.996c-0.121,0.301-0.331,0.574-0.631,0.82c-0.301,0.246-0.68,0.369-1.136,0.369h-4.24l10.229-26.172h5.537
		L132.79,46.123z M115.906,36.186h7.793l-2.832-8.009c-0.168-0.42-0.346-0.914-0.532-1.479c-0.186-0.564-0.368-1.174-0.55-1.823
		c-0.169,0.663-0.343,1.278-0.523,1.85c-0.18,0.57-0.354,1.066-0.522,1.488L115.906,36.186z"/>
	<path fill="#F68A3E" d="M28.625,11.285l-8.074,0.15l0.143,3.639l8.154-0.061L28.625,11.285z M5.159,1.263L0.9,5.097l12.035,7.618
		l2.494-3.152L5.159,1.263 M20.066,16.074l-3.453,1.512l3.169,10.768l3.849-2.6L20.066,16.074 M12.986,14.137L0,22.736L4.26,27.18
		l11.252-9.864L12.986,14.137 M22.845,1.966L19.262,0L16.633,9.33l3.369,1.27L22.845,1.966"/>
</g>
</svg>
