<?xml version="1.0" encoding="utf-8"?>
<!-- Generator: Adobe Illustrator 16.0.0, SVG Export Plug-In . SVG Version: 6.00 Build 0)  -->
<!DOCTYPE svg PUBLIC "-//W3C//DTD SVG 1.1//EN" "http://www.w3.org/Graphics/SVG/1.1/DTD/svg11.dtd">
<svg version="1.1" id="Layer_1" xmlns="http://www.w3.org/2000/svg" xmlns:xlink="http://www.w3.org/1999/xlink" x="0px" y="0px"
	 width="10.524px" height="10.183px" viewBox="0 0 10.524 10.183" enable-background="new 0 0 10.524 10.183" xml:space="preserve">
<g opacity="0.2">
	<g>
		<defs>
			<rect id="SVGID_1_" x="0" y="0" width="10.524" height="10.182"/>
		</defs>
		<clipPath id="SVGID_2_">
			<use xlink:href="#SVGID_1_"  overflow="visible"/>
		</clipPath>
		<path clip-path="url(#SVGID_2_)" fill="#FFFFFF" d="M10.523,9.476L8.155,7.105C8.682,6.369,9,5.473,9,4.5C9,2.019,6.98,0,4.5,0
			C2.019,0,0,2.019,0,4.5S2.019,9,4.5,9c1.147,0,2.186-0.444,2.98-1.154l2.336,2.338L10.523,9.476z M4.5,8C2.57,8,1,6.43,1,4.5
			S2.57,1,4.5,1S8,2.57,8,4.5S6.43,8,4.5,8"/>
	</g>
</g>
</svg>
