<?xml version="1.0" encoding="utf-8"?>
<!-- Generator: Adobe Illustrator 16.0.0, SVG Export Plug-In . SVG Version: 6.00 Build 0)  -->
<!DOCTYPE svg PUBLIC "-//W3C//DTD SVG 1.1//EN" "http://www.w3.org/Graphics/SVG/1.1/DTD/svg11.dtd">
<svg version="1.1" id="Layer_1" xmlns="http://www.w3.org/2000/svg" xmlns:xlink="http://www.w3.org/1999/xlink" x="0px" y="0px"
	 width="143.056px" height="40px" viewBox="0 0 143.056 40" enable-background="new 0 0 143.056 40" xml:space="preserve">
<g>
	<path fill="#404042" d="M143.056,25.753c-1.488,0.141-2.942-0.414-4.491,0.075c-1.436,0.453-2.851-0.681-3.235-2.177
		c-0.424-1.646,0.364-3.35,1.839-3.954c0.677-0.278,1.392-0.348,2.116-0.364c0.377-0.009,0.815,0.054,0.816-0.534
		c0.001-0.538-0.02-1.104-0.57-1.375c-0.421-0.208-0.906-0.136-1.108,0.342c-0.573,1.354-1.719,0.648-2.604,0.702
		c-0.579,0.035-0.319-0.596-0.253-0.91c0.315-1.488,2.121-2.592,3.958-2.462c1.976,0.141,3.195,1.189,3.268,2.969
		c0.074,1.872,0.024,3.749,0.031,5.623c0,0.232-0.04,0.486,0.234,0.617V25.753z M140.093,22.242
		c-0.128-0.356,0.396-1.165-0.63-1.156c-0.951,0.008-1.355,0.544-1.373,1.458c-0.012,0.651,0.142,1.194,0.911,1.147
		C139.792,23.643,140.197,23.17,140.093,22.242"/>
	<path fill="#ED2224" d="M30.74,28.373c1.065,1.785,2.132,3.571,3.197,5.357l-0.224,0.293c-1.724-1.045-3.447-2.091-5.172-3.136
		c-0.092,0.071-0.184,0.144-0.275,0.215c0.556,1.951,1.111,3.902,1.712,6.013c-1.661-1.59-3.166-3.029-4.671-4.468
		c-0.048-0.11-0.083-0.29-0.241-0.172c-0.057,0.042,0.002,0.24,0.007,0.367v6.602c-0.892-1.647-1.679-3.136-2.506-4.602
		c-0.197-0.352-0.256-0.971-0.778-0.923c-0.554,0.051-0.412,0.688-0.51,1.056c-0.442,1.663-0.813,3.347-1.45,5.024
		c-0.523-2.198-1.047-4.396-1.618-6.795c-1.149,2.132-2.213,4.102-3.451,6.398v-7.069c-1.676,1.244-2.695,3.288-4.873,4.502
		c0.7-2.295,1.293-4.241,1.978-6.485c-2.109,1.303-3.988,2.464-5.867,3.626c-0.076-0.06-0.149-0.118-0.224-0.178
		c1.128-1.846,2.256-3.692,3.57-5.843C7,28.838,4.93,29.44,2.859,30.043c-0.044-0.105-0.089-0.21-0.133-0.314
		c1.526-1.434,3.055-2.867,4.786-4.492H0.264c2.35-1.263,4.346-2.336,6.489-3.488c-2.339-0.563-4.541-1.094-6.742-1.624
		C0.007,20.04,0.003,19.956,0,19.873c2.159-0.516,4.319-1.031,6.744-1.61c-2.145-1.162-4.08-2.212-6.36-3.448h7.167
		c-1.676-1.582-3.222-3.041-4.984-4.704c1.312-0.029,2.288,0.449,3.292,0.721c1.021,0.277,2.032,0.601,3.048,0.903
		c0.119,0.022,0.306,0.103,0.344,0.058c0.117-0.139-0.015-0.223-0.142-0.279C7.977,9.646,6.846,7.777,5.714,5.909
		c0.041-0.061,0.082-0.121,0.123-0.182c1.923,1.187,3.847,2.374,6.014,3.712c-0.608-2.008-1.123-3.745-1.67-5.473
		c-0.08-0.252-0.447-0.498-0.135-0.735c0.323-0.246,0.617,0.018,0.858,0.273c1.245,1.325,2.493,2.646,3.851,4.085V0.382
		c1.233,2.289,2.298,4.266,3.455,6.413c0.57-2.394,1.09-4.576,1.609-6.759C19.902,0.024,19.985,0.013,20.067,0
		c0.405,1.707,0.791,3.419,1.233,5.115c0.084,0.322-0.035,0.871,0.492,0.918c0.492,0.044,0.559-0.474,0.73-0.785
		c0.836-1.513,1.641-3.043,2.625-4.882v7.229c1.619-1.716,3.045-3.226,4.47-4.735c0.108,0.052,0.218,0.104,0.326,0.155
		c-0.56,1.936-1.118,3.871-1.677,5.807c-0.105,0.153-0.222,0.324-0.016,0.464c0.041,0.026,0.203-0.127,0.31-0.195
		c1.805-1.093,3.609-2.186,5.416-3.277l0.196,0.141c-1.132,1.839-2.264,3.677-3.462,5.622c2.091,0.055,3.793-1.32,6.271-1.149
		c-1.712,1.626-3.134,2.977-4.817,4.576c2.564,0.036,4.773-0.456,7.342-0.186c-2.212,1.203-4.176,2.271-6.333,3.445
		c2.385,0.567,4.546,1.081,6.705,1.595c0.004,0.092,0.007,0.184,0.011,0.276c-2.153,0.516-4.307,1.031-6.723,1.609
		c2.164,1.169,4.134,2.232,6.423,3.468H32.35c1.571,1.471,3.074,2.88,4.578,4.288c-0.063,0.113-0.127,0.226-0.19,0.339
		c-2.008-0.283-3.877-1.142-5.839-1.615c-0.104-0.02-0.209-0.04-0.313-0.062C30.637,28.231,30.688,28.302,30.74,28.373
		 M19.907,13.26c-3.779,0.02-6.782,3.036-6.78,6.811c0.003,3.754,3.04,6.804,6.794,6.822c3.808,0.02,6.884-3.084,6.845-6.906
		C26.728,16.213,23.697,13.241,19.907,13.26 M28.399,30.776c-0.038-0.039-0.07-0.071-0.104-0.104
		c-0.031,0.065-0.074,0.127-0.09,0.195c-0.005,0.023,0.059,0.063,0.09,0.095C28.331,30.899,28.366,30.837,28.399,30.776"/>
	<path fill="#404042" d="M96.501,18.662c0-1.828,0.055-3.658-0.021-5.482c-0.044-1.021,0.158-1.505,1.313-1.395
		c1.145,0.107,2.308,0.035,3.462,0.02c1.729-0.022,3.195,0.525,3.841,2.221c0.681,1.79,0.684,3.646-0.745,5.115
		c-0.655,0.674-0.755,1.158-0.359,1.962c0.595,1.203,1.054,2.472,1.607,3.695c0.324,0.717,0.098,0.854-0.633,0.938
		c-1.525,0.173-2.554-0.178-2.941-1.847c-0.214-0.922-0.728-1.771-1.063-2.67c-0.212-0.566-0.601-0.696-1.129-0.608
		c-0.581,0.096-0.414,0.567-0.421,0.916c-0.021,1.058-0.084,2.124,0.012,3.173c0.11,1.224-0.686,1.042-1.382,1
		c-0.67-0.039-1.612,0.4-1.561-0.976C96.558,22.706,96.501,20.683,96.501,18.662 M99.343,16.14c0.426,0.688-0.787,2.183,1.172,2.098
		c1.474-0.064,2.088-0.638,2.061-2.125c-0.025-1.437-0.569-1.862-2.048-1.954C98.676,14.043,99.684,15.421,99.343,16.14"/>
	<path fill="#404042" d="M65.156,21.31v0.289c0,2.846-0.514,3.592-2.833,4.116c-2.942,0.666-5.444-0.182-6.271-2.452
		c-1.096-3.014-1.077-6.162,0.035-9.175c0.74-2.005,2.827-2.842,5.314-2.482c2.051,0.296,3.249,1.583,3.614,3.737
		c0.119,0.712-0.01,0.96-0.749,0.921c-1.004-0.052-2.136,0.321-2.29-1.334c-0.07-0.748-0.878-0.987-1.585-0.969
		c-0.766,0.021-1.482,0.346-1.698,1.118c-0.67,2.405-0.727,4.852,0.023,7.241c0.331,1.053,1.72,1.471,2.819,1.036
		c1.24-0.49,0.639-1.564,0.672-2.385c0.028-0.671-0.658-0.446-1.012-0.404c-0.988,0.119-0.94-0.471-0.931-1.141
		c0.009-0.655-0.073-1.254,0.924-1.173c0.957,0.078,1.93,0.076,2.886-0.001c0.95-0.077,1.162,0.35,1.092,1.18
		C65.113,20.054,65.156,20.684,65.156,21.31"/>
	<path fill="#404042" d="M87.192,15.766c0-1.383,0.061-2.637-0.017-3.882c-0.081-1.322,0.857-0.855,1.454-0.876
		c0.636-0.022,1.457-0.354,1.439,0.922c-0.061,4.139-0.014,8.278-0.034,12.417c-0.002,0.44,0.277,1.129-0.3,1.272
		c-0.704,0.176-1.663,0.428-2.164-0.144c-0.402-0.458-0.477-0.272-0.808-0.089c-1.996,1.101-3.844,0.37-4.522-1.831
		c-0.58-1.878-0.552-3.813-0.111-5.701C82.729,15.28,84.556,14.524,87.192,15.766 M87.191,20.615c0-0.625-0.026-1.252,0.008-1.875
		c0.039-0.703-0.305-1.119-0.944-1.227c-0.71-0.118-1.216,0.223-1.391,0.938c-0.349,1.425-0.352,2.856,0.03,4.273
		c0.179,0.665,0.702,0.895,1.336,0.805c0.653-0.093,1.013-0.468,0.969-1.185C87.164,21.771,87.192,21.191,87.191,20.615"/>
	<path fill="#404042" d="M129.354,18.344c0.893-2.278,2.176-3.844,4.912-2.793c-0.712,1.021-1.396,2.112-2.194,3.111
		c-0.571,0.716-0.541,1.267-0.078,2.038c0.936,1.558,1.739,3.194,2.635,4.868c-0.224,0.065-0.341,0.108-0.462,0.135
		c-2.032,0.442-3.25-0.37-3.817-2.359c-0.131-0.46-0.209-1.363-0.907-1.181c-0.626,0.164-0.364,0.997-0.407,1.556
		c-0.008,0.096-0.001,0.192-0.002,0.289c-0.003,1.786-0.003,1.743-1.846,1.722c-0.762-0.008-0.989-0.239-0.984-0.991
		c0.028-4.293,0.046-8.587-0.006-12.879c-0.015-1.195,0.764-0.88,1.349-0.851c0.6,0.031,1.546-0.461,1.501,0.86
		c-0.057,1.638-0.027,3.28-0.004,4.92C129.05,17.236,128.882,17.725,129.354,18.344"/>
	<path fill="#404042" d="M80.723,25.67c-1.036-0.062-1.99,0.34-2.864-0.263c-0.331-0.228-0.521,0.04-0.768,0.138
		c-1.87,0.743-3.533,0.106-4.143-1.585c-0.664-1.844,0.178-3.657,1.98-4.345c0.559-0.213,1.129-0.22,1.701-0.278
		c0.397-0.04,0.931,0.141,0.956-0.553c0.02-0.545,0.016-1.112-0.568-1.364c-0.509-0.219-0.895-0.014-1.189,0.492
		c-0.299,0.511-2.26,0.874-2.676,0.54c-0.327-0.262-0.161-0.623-0.088-0.922c0.364-1.515,2.304-2.631,4.153-2.413
		c2.013,0.237,3.02,1.26,3.082,3.143C80.381,20.704,80.06,23.163,80.723,25.67 M77.596,22.238c-0.022-0.612,0.16-1.233-0.719-1.156
		c-0.959,0.085-1.288,0.677-1.295,1.544c-0.005,0.584,0.196,1.089,0.858,1.066C77.428,23.66,77.713,23.017,77.596,22.238"/>
	<path fill="#404042" d="M116.705,20.567c-0.055-0.916-0.018-1.822,0.275-2.706c0.599-1.811,2.02-2.824,3.923-2.773
		c1.962,0.053,3.186,1.074,3.648,3.044c0.021,0.094,0.032,0.189,0.052,0.283c0.606,2.897,0.526,2.999-2.335,2.999
		c-0.529,0-1.065-0.055-1.585,0.018c-0.412,0.059-1.125-0.369-1.19,0.31c-0.066,0.701,0.216,1.461,1.044,1.71
		c0.817,0.246,1.673,0.2,2.337-0.344c0.782-0.641,0.939,0.035,1.276,0.451c0.431,0.532,0.51,0.981-0.144,1.425
		c-1.557,1.061-3.217,1.211-4.933,0.529c-1.557-0.617-2.192-1.93-2.36-3.505C116.662,21.532,116.705,21.048,116.705,20.567
		 M120.693,19.565c0.408-0.263,1.348,0.459,1.279-0.731c-0.041-0.734-0.296-1.37-1.116-1.394c-0.966-0.028-1.304,0.707-1.346,1.521
		C119.462,19.898,120.257,19.373,120.693,19.565"/>
	<path fill="#404042" d="M114.984,21.568c-0.001,1.731,0.041,3.465-0.011,5.195c-0.064,2.114-1.437,3.279-3.484,3.092
		c-0.557-0.051-0.988-0.178-0.839-0.829c0.119-0.519-0.472-1.409,0.458-1.502c1.183-0.119,1.097-0.889,1.101-1.644
		c0.018-3.127,0.082-6.257-0.027-9.381c-0.048-1.342,0.697-1.127,1.514-1.189c0.938-0.07,1.382,0.113,1.315,1.207
		C114.91,18.195,114.984,19.884,114.984,21.568"/>
	<path fill="#404042" d="M66.884,20.47c0-1.153-0.001-2.308,0-3.461c0-1.604,0.92-2.31,2.354-1.574
		c0.565,0.29,0.746,0.265,1.182-0.047c0.428-0.305,1.07-0.554,1.455-0.085c0.518,0.629,0.201,1.472,0.197,2.218
		c-0.005,0.604-0.54,0.408-0.884,0.415c-1.164,0.022-1.608,0.659-1.599,1.754c0.015,1.635-0.063,3.273,0.027,4.902
		c0.06,1.057-0.433,1.193-1.277,1.126c-0.727-0.058-1.575,0.244-1.479-1.067C66.964,23.265,66.884,21.865,66.884,20.47"/>
	<path fill="#404042" d="M110.064,20.686c-0.001,1.394-0.05,2.79,0.016,4.181c0.05,1.066-0.662,0.886-1.237,0.824
		c-0.595-0.063-1.559,0.482-1.551-0.817c0.017-2.885,0.042-5.77-0.012-8.652c-0.024-1.309,0.88-0.841,1.486-0.874
		c0.598-0.032,1.385-0.313,1.317,0.87C110,17.702,110.064,19.195,110.064,20.686"/>
	<path fill="#404042" d="M108.61,14.184c-0.933-0.069-1.46-0.624-1.425-1.583c0.034-0.913,0.619-1.361,1.527-1.366
		c0.942-0.005,1.459,0.528,1.473,1.411C110.2,13.596,109.664,14.155,108.61,14.184"/>
	<path fill="#404042" d="M115.036,12.726c-0.044,0.953-0.58,1.466-1.551,1.438c-0.899-0.025-1.399-0.526-1.405-1.459
		c-0.006-1.025,0.564-1.479,1.531-1.463C114.533,11.256,114.999,11.771,115.036,12.726"/>
</g>
</svg>
