<?xml version="1.0" encoding="utf-8"?>
<!-- Generator: Adobe Illustrator 16.0.0, SVG Export Plug-In . SVG Version: 6.00 Build 0)  -->
<!DOCTYPE svg PUBLIC "-//W3C//DTD SVG 1.1//EN" "http://www.w3.org/Graphics/SVG/1.1/DTD/svg11.dtd">
<svg version="1.1" id="Layer_1" xmlns="http://www.w3.org/2000/svg" xmlns:xlink="http://www.w3.org/1999/xlink" x="0px" y="0px"
	 width="85.618px" height="45px" viewBox="0 0 85.618 45" enable-background="new 0 0 85.618 45" xml:space="preserve">
<g>
	<path fill="#5D5D5F" d="M46.216,38.05c-0.029-0.009-0.059-0.022-0.088-0.023c-0.676-0.033-0.676-0.033-0.893-0.684
		c-0.152-0.456-0.316-0.908-0.458-1.367c-0.052-0.167-0.133-0.219-0.307-0.216c-0.728,0.01-1.455,0.012-2.184-0.001
		c-0.19-0.004-0.264,0.071-0.327,0.235c-0.231,0.602-0.486,1.195-0.712,1.799c-0.075,0.199-0.194,0.242-0.388,0.263
		c-0.868,0.093-1.521-0.276-2.067-0.909c-0.374-0.435-0.759-0.86-1.138-1.291c-0.084-0.095-0.167-0.161-0.311-0.155
		c-0.358,0.016-0.718,0.02-1.076,0.007c-0.197-0.007-0.263,0.048-0.259,0.254c0.015,0.604-0.01,1.21,0.012,1.814
		c0.011,0.287-0.152,0.259-0.327,0.247c-0.161-0.012-0.37,0.092-0.368-0.238c0.012-1.906,0.008-3.814,0.002-5.722
		c-0.001-0.183,0.037-0.252,0.235-0.248c0.728,0.016,1.456-0.002,2.183,0.021c0.954,0.031,1.579,0.538,1.748,1.382
		c0.199,0.99-0.192,1.828-1.042,2.236c-0.064,0.03-0.128,0.061-0.226,0.107c0.738,0.758,1.324,1.659,2.391,2.016
		c0.65-1.589,1.308-3.198,1.966-4.808c0.027-0.066,0.052-0.133,0.079-0.199c0.318-0.769,0.318-0.76,1.146-0.758
		c0.199,0.001,0.26,0.086,0.317,0.246c0.652,1.863,1.308,3.725,1.964,5.587c0.027,0.081,0.025,0.181,0.127,0.22V38.05z
		 M36.929,32.388c-0.257,0-0.473,0.014-0.687-0.004c-0.2-0.016-0.237,0.066-0.235,0.247c0.009,0.737,0.013,1.475-0.001,2.211
		c-0.004,0.227,0.077,0.274,0.281,0.267c0.348-0.016,0.697-0.005,1.045-0.005c0.29,0,0.568-0.057,0.83-0.184
		c0.508-0.249,0.746-0.77,0.654-1.429c-0.086-0.622-0.386-0.937-0.981-1.053C37.521,32.378,37.203,32.396,36.929,32.388
		 M44.485,35.148c-0.335-0.98-0.662-1.932-0.995-2.904c-0.204,0.351-1.111,2.667-1.14,2.904H44.485z"/>
	<path fill="#5D5D5F" d="M23.757,0c0.645,0.213,1.183,0.562,1.445,1.219c0.314,0.784,0.233,1.534-0.325,2.182
		c-0.55,0.639-1.268,0.861-2.081,0.645s-1.338-0.774-1.483-1.596c-0.193-1.091,0.355-1.974,1.303-2.338
		C22.71,0.075,22.802,0.037,22.895,0H23.757z"/>
	<path fill="#F9A71C" d="M8.618,8.854c3.378,0,6.084,2.715,6.083,6.104c-0.001,3.337-2.753,6.085-6.094,6.083
		c-3.366-0.003-6.094-2.738-6.092-6.109C2.517,11.546,5.222,8.854,8.618,8.854"/>
	<path fill="#EB2228" d="M20.457,6.265c0.017,1.992-1.603,3.663-3.566,3.678c-2.101,0.016-3.747-1.584-3.753-3.646
		c-0.006-1.997,1.606-3.644,3.583-3.659C18.8,2.62,20.439,4.212,20.457,6.265"/>
	<path fill="#72BF45" d="M7.632,26.086C7.63,28.108,6,29.729,3.967,29.727c-2.035-0.002-3.653-1.638-3.65-3.688
		c0.003-2.018,1.655-3.63,3.715-3.627C6.021,22.415,7.633,24.061,7.632,26.086"/>
	<path fill="#149ED9" d="M6.103,34.928c0.005,1.685-1.35,3.047-3.038,3.053C1.378,37.987,0.008,36.633,0,34.951
		c-0.007-1.695,1.363-3.072,3.058-3.071C4.744,31.881,6.098,33.236,6.103,34.928"/>
	<path fill="#5D5D5F" d="M4.4,44.991c-1.149,0-2.043-0.9-2.03-2.045c0.013-1.143,0.941-2.07,2.053-2.053
		c1.152,0.018,2.039,0.932,2.042,2.093C6.469,44.154,5.42,45.104,4.4,44.991"/>
	<path fill="#5D5D5F" d="M11.346,34.892c0-0.934,0.006-1.866-0.004-2.8c-0.003-0.21,0.049-0.283,0.27-0.277
		c0.717,0.018,1.436-0.001,2.153,0.021c0.931,0.03,1.556,0.538,1.727,1.369c0.201,0.968-0.159,1.815-0.977,2.207
		c-0.276,0.132-0.264,0.203-0.064,0.396c0.36,0.35,0.688,0.731,1.04,1.088c0.232,0.235,0.499,0.445,0.814,0.537
		c0.344,0.102,0.208,0.309,0.158,0.497c-0.065,0.245-0.248,0.115-0.375,0.084c-0.482-0.121-0.871-0.402-1.199-0.766
		c-0.412-0.457-0.818-0.919-1.222-1.383c-0.101-0.116-0.203-0.173-0.368-0.164c-0.327,0.02-0.657,0.021-0.984,0.005
		c-0.23-0.012-0.318,0.045-0.309,0.297c0.02,0.594-0.009,1.19,0.012,1.784c0.011,0.302-0.177,0.232-0.339,0.234
		c-0.166,0.003-0.344,0.058-0.339-0.238C11.357,36.82,11.346,35.855,11.346,34.892 M12.009,33.756c0,0.379-0.001,0.758,0.001,1.138
		c0,0.085-0.031,0.211,0.111,0.205c0.641-0.024,1.295,0.109,1.919-0.127c0.594-0.224,0.858-0.727,0.78-1.438
		c-0.072-0.657-0.383-0.994-1.035-1.102c-0.539-0.088-1.084-0.025-1.626-0.044c-0.157-0.006-0.151,0.093-0.15,0.2
		C12.01,32.978,12.009,33.367,12.009,33.756"/>
	<path fill="#5D5D5F" d="M16.352,19.467c-0.03-6.119,6.073-7.474,9.49-5.684c1.783,0.935,2.661,2.523,2.932,4.466
		c0.297,2.131-0.021,4.125-1.554,5.754c-1.714,1.821-4.839,2.39-7.345,1.39C17.643,24.504,16.352,22.331,16.352,19.467
		 M27.502,19.538c0.023-4.571-3.808-6.047-6.873-4.913c-1.884,0.698-3.028,2.584-2.957,4.896c0.06,1.966,0.678,3.669,2.532,4.633
		C23.74,25.989,27.5,23.597,27.502,19.538"/>
	<path fill="#5D5D5F" d="M29.317,34.893c0-0.933,0.006-1.865-0.004-2.799c-0.002-0.206,0.043-0.282,0.267-0.279
		c1.169,0.011,2.338,0.011,3.506-0.001c0.227-0.002,0.266,0.076,0.266,0.28c0,0.211-0.028,0.306-0.278,0.301
		c-0.933-0.017-1.866,0-2.799-0.011c-0.212-0.003-0.281,0.052-0.275,0.271c0.015,0.553,0.016,1.107,0,1.66
		c-0.007,0.225,0.046,0.298,0.284,0.294c0.871-0.016,1.743,0.006,2.615-0.014c0.267-0.006,0.264,0.118,0.267,0.312
		c0.003,0.202-0.013,0.315-0.273,0.311c-0.871-0.018-1.743-0.001-2.614-0.013c-0.21-0.001-0.285,0.049-0.279,0.271
		c0.015,0.574,0.012,1.148,0.001,1.723c-0.004,0.19,0.054,0.241,0.242,0.24c1.015-0.009,2.031,0.007,3.045-0.012
		c0.261-0.005,0.266,0.105,0.271,0.304c0.005,0.214-0.032,0.304-0.28,0.301c-1.23-0.014-2.461-0.011-3.691-0.002
		c-0.215,0.002-0.278-0.06-0.275-0.275C29.323,36.8,29.317,35.847,29.317,34.893"/>
	<path fill="#5D5D5F" d="M80.269,13.247c1.066,0,1.068-0.001,1.424,1.016c1.277,3.628,2.547,7.259,3.84,10.881
		c0.168,0.476,0.115,0.583-0.418,0.615c-0.701,0.041-1.012-0.176-1.197-0.865c-0.295-1.11-0.734-2.181-1.086-3.277
		c-0.107-0.33-0.264-0.443-0.611-0.438c-1.486,0.02-2.969,0.018-4.453,0c-0.322-0.004-0.471,0.108-0.584,0.398
		c-0.488,1.266-0.998,2.524-1.504,3.783c-0.123,0.305-1.238,0.572-1.453,0.341c-0.158-0.173,0.023-0.345,0.088-0.503
		c1.131-2.782,2.266-5.562,3.4-8.343c0.35-0.856,0.703-1.712,1.051-2.57C79.183,13.248,79.179,13.247,80.269,13.247 M80.205,14.002
		c-0.791,1.983-1.523,3.814-2.252,5.646c-0.072,0.18-0.08,0.316,0.184,0.315c1.348-0.005,2.697-0.002,4.107-0.002
		C81.562,17.971,80.912,16.066,80.205,14.002"/>
	<path fill="#5D5D5F" d="M46.361,21.186c-0.723,0-1.443,0.022-2.165-0.009c-0.375-0.016-0.546,0.12-0.676,0.461
		c-0.477,1.249-0.983,2.487-1.484,3.727c-0.119,0.297-1.258,0.563-1.455,0.333c-0.151-0.177,0.034-0.351,0.098-0.507
		c1.316-3.242,2.641-6.479,3.966-9.718c0.101-0.247,0.205-0.493,0.308-0.74c0.674-1.644,0.672-1.637,2.443-1.493
		c0.256,0.021,0.352,0.127,0.428,0.345c1.373,3.923,2.752,7.845,4.139,11.763c0.121,0.339-0.002,0.377-0.293,0.394
		c-1.049,0.059-1.051,0.068-1.387-0.902c-0.369-1.069-0.746-2.138-1.092-3.215c-0.104-0.323-0.244-0.461-0.604-0.446
		C47.847,21.207,47.103,21.186,46.361,21.186 M46.564,14.016c-0.832,2.087-1.59,3.99-2.368,5.947c1.399,0,2.698-0.01,3.995,0.006
		c0.379,0.005,0.395-0.109,0.277-0.43c-0.383-1.063-0.736-2.138-1.102-3.208C47.123,15.621,46.876,14.912,46.564,14.016"/>
	<path fill="#5D5D5F" d="M32.011,19.473c0-1.878,0.019-3.756-0.013-5.633c-0.008-0.505,0.154-0.615,0.626-0.604
		c1.34,0.034,2.683-0.02,4.022,0.03c2.339,0.088,3.608,1.22,3.802,3.314c0.206,2.221-0.963,3.824-3.172,4.329
		c-0.523,0.118-1.058,0.147-1.595,0.181c-0.483,0.03-0.433-0.272-0.397-0.548c0.035-0.265-0.233-0.721,0.381-0.688
		c0.58,0.031,1.15-0.031,1.704-0.23c1.23-0.441,1.766-1.376,1.647-2.904c-0.101-1.303-0.757-2.021-2.061-2.234
		c-1.087-0.178-2.183-0.057-3.274-0.095c-0.475-0.017-0.324,0.332-0.325,0.559c-0.007,3.342-0.002,6.685-0.012,10.026
		c0,0.246,0.162,0.618-0.14,0.717c-0.315,0.103-0.7,0.07-1.037,0.007c-0.269-0.05-0.15-0.347-0.151-0.532
		C32.008,23.269,32.011,21.37,32.011,19.473"/>
	<path fill="#5D5D5F" d="M22.248,37.618c0.289-0.722,0.558-1.394,0.826-2.066c0.461-1.159,0.921-2.319,1.382-3.479
		c0.084-0.211,0.566-0.373,0.739-0.242c0.107,0.082,0.003,0.17-0.027,0.244c-0.417,1.033-0.839,2.063-1.26,3.097
		c-0.36,0.88-0.723,1.76-1.076,2.642c-0.062,0.157-0.14,0.214-0.313,0.216c-0.838,0.009-0.834,0.014-1.12-0.8
		c-0.599-1.708-1.198-3.416-1.808-5.119c-0.087-0.241-0.054-0.287,0.207-0.303c0.344-0.021,0.483,0.087,0.594,0.424
		c0.549,1.681,1.135,3.351,1.71,5.023C22.138,37.359,22.184,37.461,22.248,37.618"/>
	<path fill="#5D5D5F" d="M58,20.13c0,1.692-0.031,3.386,0.018,5.077c0.018,0.622-0.326,0.521-0.695,0.532
		c-0.402,0.013-0.682,0.025-0.676-0.558c0.029-3.323-0.004-6.646,0.029-9.97c0.008-0.622-0.18-0.751-0.758-0.729
		c-1.195,0.046-2.395-0.016-3.59,0.026c-0.57,0.021-0.457-0.322-0.451-0.634c0.004-0.3-0.143-0.646,0.438-0.643
		c3.344,0.026,6.686,0.029,10.031,0c0.625-0.005,0.426,0.375,0.459,0.684c0.041,0.372,0.004,0.608-0.498,0.593
		c-1.217-0.039-2.438,0.021-3.652-0.027c-0.57-0.023-0.676,0.172-0.666,0.693C58.021,16.826,58,18.479,58,20.13"/>
	<path fill="#5D5D5F" d="M72.289,19.339c-0.037,1.488,0.074,3.284-0.074,5.076c-0.16,1.98-1.084,3.451-2.852,4.408
		c-0.637,0.343-0.596-0.26-0.824-0.48c-0.289-0.28-0.092-0.436,0.174-0.593c1.682-0.993,2.201-2.567,2.195-4.411
		c-0.012-3.136,0.014-6.271-0.02-9.406c-0.006-0.588,0.18-0.69,0.721-0.708c0.604-0.021,0.701,0.202,0.691,0.735
		C72.269,15.65,72.289,17.343,72.289,19.339"/>
	<path fill="#5D5D5F" d="M17.669,34.914c0-0.941,0.017-1.884-0.009-2.825c-0.01-0.336,0.183-0.258,0.366-0.271
		c0.208-0.016,0.322,0.005,0.32,0.28c-0.015,1.884-0.015,3.768,0,5.65c0.003,0.287-0.128,0.281-0.329,0.279
		c-0.205-0.002-0.364,0.024-0.356-0.288C17.684,36.798,17.669,35.855,17.669,34.914"/>
	<path fill="#5D5D5F" d="M65.031,19.469c0-1.898,0.029-3.796-0.018-5.692c-0.016-0.629,0.328-0.527,0.691-0.522
		c0.346,0.006,0.711-0.13,0.705,0.504c-0.029,3.814-0.029,7.632,0.002,11.447c0.006,0.616-0.316,0.541-0.689,0.53
		c-0.352-0.01-0.721,0.122-0.707-0.513C65.056,23.306,65.031,21.387,65.031,19.469"/>
	<path fill="#5D5D5F" d="M27.077,34.942c0,0.933-0.012,1.866,0.008,2.798c0.006,0.274-0.109,0.303-0.322,0.286
		c-0.182-0.015-0.375,0.068-0.372-0.268c0.016-1.896,0.016-3.792,0-5.688c-0.002-0.353,0.218-0.229,0.384-0.248
		c0.192-0.022,0.315-0.007,0.31,0.261C27.066,33.036,27.077,33.989,27.077,34.942"/>
</g>
</svg>
