<?xml version="1.0" encoding="iso-8859-1"?>
<!-- Generator: Adobe Illustrator 19.0.0, SVG Export Plug-In . SVG Version: 6.00 Build 0)  -->
<svg version="1.1" id="Capa_1" xmlns="http://www.w3.org/2000/svg" xmlns:xlink="http://www.w3.org/1999/xlink" x="0px" y="0px"
	 viewBox="0 0 405.21 405.21" style="enable-background:new 0 0 405.21 405.21;" xml:space="preserve">
<g>
	<g>
		<path d="M403.131,357.592c-0.121-0.129-0.246-0.255-0.549-0.19L281.238,236.05c45.821-70.897,25.492-165.516-45.405-211.337
			C164.935-21.108,70.316-0.779,24.495,70.118C-21.326,141.016-0.997,235.635,69.9,281.455
			c50.562,32.678,115.597,32.632,166.113-0.117l121.32,121.312c3.124,3.123,8.188,3.123,11.312,0l33.936-33.936
			C405.808,365.695,406.15,360.818,403.131,357.592z M232.454,264.53c-53.997,38.725-128.117,32.536-174.944-14.608
			C4.371,196.838,4.326,110.728,57.41,57.589s139.194-53.184,192.333-0.1c46.98,46.931,53.198,120.927,14.711,175.041
			c-4.36,6.204-9.247,12.021-14.608,17.384c-2.667,2.667-5.464,5.232-8.392,7.696C238.526,260.074,235.526,262.381,232.454,264.53z
			 M362.982,385.682L249.23,271.93c0.344-0.28,0.648-0.608,0.992-0.888c3.813-3.084,7.468-6.357,10.952-9.808
			c3.464-3.464,6.696-7.152,9.792-10.936c0.288-0.344,0.616-0.648,0.896-1l113.752,113.76L362.982,385.682z"/>
	</g>
</g>
<g>
</g>
<g>
</g>
<g>
</g>
<g>
</g>
<g>
</g>
<g>
</g>
<g>
</g>
<g>
</g>
<g>
</g>
<g>
</g>
<g>
</g>
<g>
</g>
<g>
</g>
<g>
</g>
<g>
</g>
</svg>
