<?xml version="1.0" encoding="utf-8"?>
<!-- Generator: Adobe Illustrator 23.0.3, SVG Export Plug-In . SVG Version: 6.00 Build 0)  -->
<svg version="1.1" id="Layer_1" xmlns="http://www.w3.org/2000/svg" xmlns:xlink="http://www.w3.org/1999/xlink" x="0px" y="0px"
	 viewBox="0 0 305.9 66.8" enable-background="new 0 0 305.9 66.8" xml:space="preserve">
    <style type="text/css">
	.star{fill:#00818C; position:absolute;  }
	.st{fill:#F68A3D; transform-origin:10% 22%; animation: anima 10s ease-in infinite;}

@keyframes anima {
    90%{transform:scale(1.1,1.1);}
	92%{transform:scale(0,0);}
    98%{transform:scale(0,0);}
    100%{transform:scale(1,1);}
}

	.st2{fill:#FFFFFF;}
</style>
<g>
	<path class="st2" fill="#FFFFFF" d="M144.4,51.8V26.3h6.9c2.8,0,4.9,0.6,6.2,1.7s2,2.7,2,4.7c0,0.7-0.1,1.4-0.4,2.1c-0.3,0.7-0.6,1.3-1.1,1.8
		s-1.1,1-1.8,1.4s-1.5,0.6-2.3,0.8c1,0.1,2,0.3,2.8,0.7c0.8,0.3,1.5,0.8,2.1,1.3s1,1.1,1.3,1.9s0.5,1.5,0.5,2.4
		c0,1.1-0.2,2.1-0.6,2.9c-0.4,0.8-0.9,1.6-1.6,2.1s-1.6,1-2.6,1.3s-2.2,0.4-3.5,0.4L144.4,51.8L144.4,51.8z M145.4,38.5h6
		c1.3,0,2.4-0.2,3.3-0.5s1.6-0.8,2.2-1.3c0.6-0.6,1-1.2,1.3-1.9c0.3-0.7,0.4-1.4,0.4-2c0-1.8-0.6-3.2-1.8-4.2c-1.2-1-3-1.5-5.5-1.5
		h-5.9L145.4,38.5L145.4,38.5z M145.4,39.3V51h6.9c2.4,0,4.2-0.5,5.5-1.5s1.9-2.5,1.9-4.5c0-0.9-0.2-1.7-0.5-2.4
		c-0.3-0.7-0.8-1.3-1.5-1.8c-0.6-0.5-1.4-0.9-2.3-1.1c-0.9-0.3-1.9-0.4-3.1-0.4L145.4,39.3L145.4,39.3z"/>
	<path class="st2" fill="#FFFFFF" d="M188.3,39.1c0,2-0.3,3.8-0.9,5.4s-1.4,3-2.5,4.1c-1,1.1-2.3,2-3.8,2.6s-3.1,0.9-4.9,0.9
		c-1.8,0-3.4-0.3-4.8-0.9c-1.5-0.6-2.7-1.5-3.8-2.6s-1.9-2.5-2.5-4.1c-0.6-1.6-0.9-3.4-0.9-5.4c0-2,0.3-3.8,0.9-5.4
		c0.6-1.6,1.4-3,2.5-4.1c1-1.1,2.3-2,3.8-2.6s3.1-0.9,4.8-0.9c1.8,0,3.4,0.3,4.9,0.9c1.5,0.6,2.7,1.5,3.8,2.6s1.9,2.5,2.5,4.1
		C188,35.3,188.3,37.1,188.3,39.1z M187.3,39.1c0-1.9-0.3-3.6-0.8-5.1s-1.3-2.8-2.2-3.8s-2.1-1.9-3.5-2.4c-1.3-0.6-2.8-0.8-4.4-0.8
		c-1.6,0-3.1,0.3-4.4,0.8c-1.3,0.6-2.5,1.4-3.5,2.4c-1,1.1-1.7,2.3-2.3,3.8s-0.8,3.2-0.8,5.1c0,1.9,0.3,3.6,0.8,5.1s1.3,2.8,2.3,3.8
		c1,1,2.1,1.8,3.5,2.4c1.3,0.6,2.8,0.8,4.4,0.8c1.6,0,3.1-0.3,4.4-0.8c1.3-0.6,2.5-1.4,3.5-2.4c1-1,1.7-2.3,2.2-3.8
		S187.3,41,187.3,39.1z"/>
	<path class="st2" fill="#FFFFFF" d="M215.9,39.1c0,2-0.3,3.8-0.9,5.4s-1.4,3-2.5,4.1c-1,1.1-2.3,2-3.8,2.6s-3.1,0.9-4.9,0.9
		c-1.8,0-3.4-0.3-4.8-0.9c-1.5-0.6-2.7-1.5-3.8-2.6s-1.9-2.5-2.5-4.1c-0.6-1.6-0.9-3.4-0.9-5.4c0-2,0.3-3.8,0.9-5.4
		c0.6-1.6,1.4-3,2.5-4.1c1-1.1,2.3-2,3.8-2.6s3.1-0.9,4.8-0.9c1.8,0,3.4,0.3,4.9,0.9c1.5,0.6,2.7,1.5,3.8,2.6s1.9,2.5,2.5,4.1
		C215.7,35.3,215.9,37.1,215.9,39.1z M214.9,39.1c0-1.9-0.3-3.6-0.8-5.1s-1.3-2.8-2.2-3.8s-2.1-1.9-3.5-2.4
		c-1.3-0.6-2.8-0.8-4.4-0.8c-1.6,0-3.1,0.3-4.4,0.8c-1.3,0.6-2.5,1.4-3.5,2.4c-1,1.1-1.7,2.3-2.3,3.8s-0.8,3.2-0.8,5.1
		c0,1.9,0.3,3.6,0.8,5.1s1.3,2.8,2.3,3.8c1,1,2.1,1.8,3.5,2.4c1.3,0.6,2.8,0.8,4.4,0.8c1.6,0,3.1-0.3,4.4-0.8
		c1.3-0.6,2.5-1.4,3.5-2.4c1-1,1.7-2.3,2.2-3.8S214.9,41,214.9,39.1z"/>
	<path class="st2" fill="#FFFFFF" d="M222.4,38.4h1.6c0.2,0,0.4,0,0.6,0c0.2,0,0.3,0,0.5-0.1s0.3-0.1,0.4-0.2c0.1-0.1,0.2-0.2,0.4-0.3l11.2-11.1
		c0.1-0.1,0.3-0.3,0.4-0.3s0.3-0.1,0.4-0.1h0.7L226.8,38c-0.2,0.2-0.4,0.4-0.5,0.5s-0.3,0.2-0.5,0.3c0.2,0.1,0.4,0.1,0.6,0.3
		c0.2,0.1,0.3,0.3,0.5,0.5l12.6,12.4h-0.7c-0.2,0-0.4,0-0.5-0.1c-0.1-0.1-0.2-0.1-0.3-0.3L226,39.9c-0.1-0.1-0.3-0.3-0.4-0.3
		c-0.1-0.1-0.2-0.2-0.4-0.2c-0.1-0.1-0.3-0.1-0.5-0.1s-0.4,0-0.7,0h-1.7v12.6h-1V26.3h1L222.4,38.4L222.4,38.4z"/>
	<path class="st2" fill="#FFFFFF" d="M244,51.8h-1V26.3h1V51.8z"/>
	<path class="st2" fill="#FFFFFF" d="M251.9,26.4c0.1,0,0.1,0.1,0.2,0.2l17.4,23.6c0-0.1,0-0.2,0-0.3s0-0.2,0-0.3V26.3h0.9v25.5h-0.4
		c-0.2,0-0.3-0.1-0.4-0.2L252,27.9c0,0.1,0,0.2,0,0.3c0,0.1,0,0.2,0,0.3v23.2h-0.9V26.3h0.5C251.7,26.3,251.8,26.3,251.9,26.4z"/>
	<path class="st2" fill="#FFFFFF" d="M293.6,51.3c-1.5,0.5-3.1,0.8-4.9,0.8c-2,0-3.8-0.3-5.4-0.9c-1.6-0.6-3-1.5-4.1-2.6s-2-2.5-2.6-4.1
		c-0.6-1.6-0.9-3.4-0.9-5.4c0-2,0.3-3.8,0.9-5.4s1.4-3,2.5-4.1s2.4-2,4-2.6s3.3-0.9,5.3-0.9c1,0,1.8,0.1,2.6,0.2
		c0.8,0.1,1.5,0.3,2.2,0.6c0.7,0.3,1.3,0.6,2,0.9c0.6,0.4,1.2,0.8,1.8,1.3l-0.3,0.4c-0.1,0.1-0.2,0.2-0.4,0.1
		c-0.1,0-0.3-0.2-0.7-0.5s-0.8-0.6-1.4-0.9s-1.4-0.6-2.4-0.9s-2.1-0.4-3.5-0.4c-1.8,0-3.4,0.3-4.8,0.8c-1.4,0.6-2.6,1.4-3.7,2.4
		s-1.8,2.3-2.3,3.8s-0.8,3.2-0.8,5.1s0.3,3.6,0.8,5.1s1.3,2.8,2.4,3.9s2.3,1.9,3.7,2.4s3.1,0.8,5,0.8c0.8,0,1.6-0.1,2.3-0.2
		s1.4-0.3,2-0.5c0.6-0.2,1.3-0.4,1.9-0.7c0.6-0.3,1.2-0.6,1.8-1v-7.5h-5.4c-0.1,0-0.2,0-0.2-0.1s-0.1-0.1-0.1-0.2v-0.5h6.6v8.7
		C296.4,50.2,295.1,50.8,293.6,51.3z"/>
</g>
<path class="st2" fill="#FFFFFF" d="M44.4,42.1v10H39V25.9h8.2c1.8,0,3.4,0.2,4.7,0.6s2.4,0.9,3.2,1.6c0.8,0.7,1.4,1.5,1.8,2.4
	c0.4,0.9,0.6,2,0.6,3.1c0,0.9-0.1,1.7-0.4,2.5c-0.3,0.8-0.6,1.5-1.1,2.1s-1.1,1.2-1.7,1.7c-0.7,0.5-1.5,0.9-2.4,1.2
	c0.4,0.2,0.7,0.4,1,0.7c0.3,0.3,0.6,0.6,0.8,1l6.1,9.4H55c-0.9,0-1.6-0.4-2-1.1l-5-8c-0.2-0.3-0.4-0.5-0.7-0.7
	c-0.3-0.1-0.6-0.2-1.1-0.2L44.4,42.1L44.4,42.1z M44.4,38.3h2.8c0.9,0,1.6-0.1,2.3-0.3c0.6-0.2,1.2-0.5,1.6-0.9s0.7-0.9,0.9-1.4
	s0.3-1.1,0.3-1.7c0-1.2-0.4-2.2-1.2-2.9c-0.8-0.7-2.1-1-3.8-1h-2.8V38.3z"/>
<path class="st2" fill="#FFFFFF" d="M86.7,39c0,1.9-0.3,3.7-1,5.3c-0.6,1.6-1.6,3.1-2.7,4.2s-2.6,2.1-4.2,2.8c-1.6,0.7-3.5,1-5.5,1
	s-3.8-0.3-5.5-1c-1.6-0.7-3.1-1.6-4.2-2.8c-1.2-1.2-2.1-2.6-2.7-4.2s-1-3.4-1-5.3s0.3-3.7,1-5.3c0.6-1.6,1.6-3,2.7-4.2
	s2.6-2.1,4.2-2.8c1.6-0.7,3.5-1,5.5-1s3.8,0.3,5.5,1c1.6,0.7,3.1,1.6,4.2,2.8c1.2,1.2,2.1,2.6,2.7,4.2C86.4,35.3,86.7,37.1,86.7,39z
	 M81.1,39c0-1.4-0.2-2.6-0.5-3.7s-0.9-2-1.6-2.8c-0.7-0.8-1.5-1.4-2.5-1.8s-2.1-0.6-3.3-0.6S71,30.4,70,30.8c-1,0.4-1.8,1-2.5,1.8
	s-1.2,1.7-1.6,2.8s-0.5,2.3-0.5,3.7c0,1.4,0.2,2.6,0.5,3.7c0.4,1.1,0.9,2,1.6,2.8c0.7,0.8,1.5,1.3,2.5,1.7c1,0.4,2.1,0.6,3.3,0.6
	s2.3-0.2,3.3-0.6c1-0.4,1.8-1,2.5-1.7c0.7-0.8,1.2-1.7,1.6-2.8S81.1,40.4,81.1,39z"/>
<path class="st2" fill="#FFFFFF" d="M93.5,26c0.2,0,0.3,0.1,0.4,0.1s0.3,0.1,0.4,0.3c0.1,0.1,0.3,0.3,0.4,0.4l13.1,16.7c0-0.5-0.1-0.9-0.1-1.3
	c0-0.4,0-0.8,0-1.2v-15h4.8v26.2h-2.8c-0.4,0-0.8-0.1-1.1-0.2s-0.6-0.4-0.9-0.7l-13-16.6c0,0.4,0.1,0.8,0.1,1.2c0,0.4,0,0.8,0,1.1
	v15.1H90V25.9h2.9C93.1,25.9,93.3,25.9,93.5,26z"/>
<path class="st2" fill="#FFFFFF" d="M140.4,52.1h-4.2c-0.5,0-0.9-0.1-1.1-0.3c-0.3-0.2-0.5-0.5-0.7-0.9l-1.8-5h-10.4l-1.8,5
	c-0.1,0.3-0.3,0.6-0.6,0.8c-0.3,0.3-0.7,0.4-1.1,0.4h-4.2l10.2-26.2h5.5L140.4,52.1z M123.5,42.2h7.8l-2.8-8
	c-0.2-0.4-0.4-0.9-0.5-1.5c-0.2-0.6-0.4-1.2-0.5-1.8c-0.2,0.7-0.3,1.3-0.5,1.9s-0.4,1.1-0.5,1.5L123.5,42.2z"/>
<g id="star">
	<path class="st" fill="#F68A3D" d="M36.2,17.3l-8.1,0.1l0.1,3.6l8.2-0.1L36.2,17.3 M12.7,7.2l-4.3,3.8l12,7.6l2.5-3.1L12.7,7.2 M27.7,22
		l-3.4,1.5l3.2,10.8l3.9-2.6L27.7,22 M20.6,20.1l-13,8.6l4.3,4.4l11.3-9.9L20.6,20.1 M30.4,7.9l-3.6-2l-2.6,9.3l3.4,1.3L30.4,7.9"/>
</g>
</svg>
