<?xml version="1.0" encoding="utf-8"?>
<!-- Generator: Adobe Illustrator 16.0.0, SVG Export Plug-In . SVG Version: 6.00 Build 0)  -->
<!DOCTYPE svg PUBLIC "-//W3C//DTD SVG 1.1//EN" "http://www.w3.org/Graphics/SVG/1.1/DTD/svg11.dtd">
<svg version="1.1" id="Layer_1" xmlns="http://www.w3.org/2000/svg" xmlns:xlink="http://www.w3.org/1999/xlink" x="0px" y="0px"
	 width="93.565px" height="41.697px" viewBox="0 0 93.565 41.697" enable-background="new 0 0 93.565 41.697" xml:space="preserve">
<path fill="#FFFFFF" d="M25.261,24.819v6.849h-3.716V13.699h5.648c1.256,0,2.329,0.13,3.22,0.39c0.892,0.26,1.622,0.621,2.193,1.083
	c0.569,0.463,0.986,1.014,1.25,1.654c0.264,0.64,0.396,1.342,0.396,2.111c0,0.595-0.084,1.158-0.254,1.69
	c-0.169,0.533-0.415,1.018-0.737,1.455c-0.322,0.438-0.718,0.826-1.188,1.164c-0.471,0.34-1.012,0.611-1.623,0.817
	c0.239,0.134,0.465,0.292,0.675,0.478c0.21,0.186,0.399,0.406,0.564,0.662l4.186,6.465h-3.357c-0.627,0-1.081-0.239-1.362-0.717
	l-3.418-5.513c-0.14-0.214-0.295-0.371-0.464-0.47c-0.17-0.1-0.42-0.149-0.749-0.149H25.261z M25.261,22.207h1.908
	c0.602,0,1.123-0.076,1.56-0.229c0.438-0.153,0.797-0.364,1.077-0.632c0.281-0.268,0.487-0.584,0.62-0.947
	c0.131-0.363,0.198-0.76,0.198-1.189c0-0.85-0.283-1.51-0.848-1.981c-0.567-0.47-1.428-0.706-2.583-0.706h-1.932V22.207z"/>
<path fill="#FFFFFF" d="M54.31,22.678c0,1.312-0.222,2.529-0.663,3.652s-1.064,2.094-1.869,2.91
	c-0.805,0.818-1.773,1.46-2.904,1.926c-1.133,0.467-2.387,0.7-3.766,0.7c-1.378,0-2.633-0.233-3.765-0.7
	c-1.131-0.466-2.102-1.107-2.91-1.926c-0.809-0.816-1.434-1.787-1.876-2.91c-0.442-1.123-0.663-2.341-0.663-3.652
	c0-1.313,0.221-2.529,0.663-3.647c0.442-1.119,1.067-2.087,1.876-2.905c0.808-0.817,1.779-1.459,2.91-1.926
	c1.132-0.466,2.387-0.699,3.765-0.699c1.379,0,2.633,0.233,3.766,0.699c1.131,0.467,2.1,1.111,2.904,1.933
	c0.805,0.821,1.428,1.792,1.869,2.911C54.088,20.161,54.31,21.372,54.31,22.678 M50.508,22.678c0-0.942-0.125-1.787-0.373-2.533
	c-0.246-0.747-0.604-1.383-1.07-1.907c-0.467-0.524-1.032-0.925-1.697-1.202c-0.665-0.276-1.417-0.414-2.26-0.414
	c-0.842,0-1.598,0.138-2.266,0.414c-0.668,0.277-1.237,0.678-1.703,1.202c-0.466,0.524-0.824,1.16-1.071,1.907
	c-0.248,0.746-0.373,1.591-0.373,2.533c0,0.949,0.125,1.797,0.373,2.545c0.247,0.746,0.605,1.381,1.071,1.9
	c0.466,0.52,1.035,0.918,1.703,1.195c0.668,0.275,1.424,0.415,2.266,0.415c0.843,0,1.595-0.14,2.26-0.415
	c0.665-0.277,1.23-0.676,1.697-1.195c0.466-0.52,0.824-1.154,1.07-1.9C50.383,24.475,50.508,23.627,50.508,22.678"/>
<path fill="#FFFFFF" d="M58.985,13.717c0.111,0.012,0.212,0.042,0.303,0.086c0.092,0.046,0.178,0.106,0.26,0.18
	c0.084,0.075,0.174,0.173,0.273,0.297l9.016,11.457c-0.033-0.313-0.058-0.619-0.074-0.916s-0.024-0.578-0.024-0.844V13.698h3.282
	v17.97h-1.919c-0.29,0-0.533-0.047-0.732-0.143c-0.196-0.095-0.391-0.258-0.581-0.488l-8.953-11.383
	c0.023,0.291,0.041,0.572,0.055,0.85c0.012,0.275,0.019,0.533,0.019,0.773v10.391h-3.282v-17.97h1.957
	C58.739,13.698,58.874,13.705,58.985,13.717"/>
<path fill="#FFFFFF" d="M91.17,31.668h-2.885c-0.321,0-0.584-0.076-0.787-0.229c-0.201-0.153-0.353-0.348-0.451-0.59l-1.213-3.43
	h-7.159l-1.214,3.43c-0.082,0.207-0.227,0.396-0.434,0.564c-0.205,0.17-0.467,0.254-0.779,0.254h-2.912l7.023-17.97h3.803
	L91.17,31.668z M79.579,24.844h5.352l-1.945-5.498c-0.115-0.289-0.238-0.627-0.365-1.016c-0.127-0.388-0.254-0.805-0.377-1.251
	c-0.117,0.454-0.236,0.877-0.359,1.269c-0.124,0.394-0.243,0.733-0.359,1.022L79.579,24.844z"/>
<path fill="#F68A3E" d="M19.654,7.748l-5.545,0.104l0.098,2.498l5.6-0.042L19.654,7.748z M3.542,0.867L0.618,3.5L8.88,8.729
	l1.713-2.164L3.542,0.867 M13.776,11.037l-2.37,1.037l2.176,7.393l2.642-1.785L13.776,11.037 M8.915,9.706L0,15.61l2.924,3.052
	l7.726-6.772L8.915,9.706 M15.685,1.35L13.225,0l-1.806,6.406l2.314,0.871L15.685,1.35"/>
</svg>
