<?xml version="1.0" encoding="utf-8"?>
<!-- Generator: Adobe Illustrator 24.3.0, SVG Export Plug-In . SVG Version: 6.00 Build 0)  -->
<svg version="1.1" id="Capa_1" xmlns="http://www.w3.org/2000/svg" xmlns:xlink="http://www.w3.org/1999/xlink" x="0px" y="0px"
	 viewBox="0 0 310.4 310.4" style="enable-background:new 0 0 310.4 310.4;" xml:space="preserve">
<style type="text/css">
	.st0{opacity:0.5;}
</style>
<g class="st0">
	<g>
		<path d="M36.8,215c-49.1-49.1-49.1-129,0-178.1c49.1-49.1,129-49.1,178.1,0c41.7,41.7,48,103.6,18.9,152c0,0-2.1,3.5,0.7,6.3
			c16.1,16.1,64.3,64.3,64.3,64.3c12.8,12.8,15.8,30.7,4.5,42l-2,2c-11.3,11.3-29.2,8.3-42-4.5c0,0-48.1-48.1-64.1-64.1
			c-3-3-6.4-0.9-6.4-0.9C140.5,262.9,78.5,256.6,36.8,215z M191.7,191.7c36.3-36.3,36.3-95.3,0-131.6c-36.3-36.3-95.3-36.3-131.6,0
			c-36.3,36.3-36.3,95.3,0,131.6C96.4,228,155.4,228,191.7,191.7z"/>
		<g>
			<path d="M183.7,118.4c1.7,0,3.4-0.3,5.1-1c6.6-2.8,9.7-10.4,6.9-17c-17.6-41.6-65.7-61.1-107.3-43.5c-6.6,2.8-9.7,10.4-6.9,17
				c2.8,6.6,10.4,9.7,17,6.9c28.4-12,61.2,1.3,73.2,29.7C173.8,115.4,178.6,118.4,183.7,118.4z"/>
		</g>
	</g>
</g>
</svg>
