<?xml version="1.0" encoding="utf-8"?>
<!-- Generator: Adobe Illustrator 24.3.0, SVG Export Plug-In . SVG Version: 6.00 Build 0)  -->
<svg version="1.1" id="rona-logo-contact" xmlns="http://www.w3.org/2000/svg" xmlns:xlink="http://www.w3.org/1999/xlink" x="0px"
	 y="0px" viewBox="0 0 345.3 55.2" style="enable-background:new 0 0 345.3 55.2;" xml:space="preserve">
<style type="text/css">
	.st0{stroke:#000000;stroke-miterlimit:10;}
	.st1{fill:none;stroke:#000000;stroke-miterlimit:10;}
	.st2{fill:#DF0006;}
</style>
<path id="Path_2" class="st0" d="M162.8,54.5V24.2h8.2c3.3,0,5.8,0.7,7.4,2c1.6,1.4,2.5,3.5,2.4,5.6c0,0.8-0.2,1.7-0.5,2.5
	c-0.3,0.8-0.8,1.5-1.3,2.2c-0.6,0.7-1.3,1.2-2.1,1.7c-0.8,0.5-1.8,0.8-2.7,1c1.1,0.1,2.3,0.4,3.4,0.8c0.9,0.4,1.8,0.9,2.5,1.5
	c0.7,0.6,1.2,1.4,1.6,2.2c0.4,0.9,0.6,1.9,0.5,2.9c0,1.2-0.2,2.4-0.7,3.4c-0.4,1-1.1,1.9-2,2.5c-0.9,0.7-2,1.3-3.1,1.6
	c-1.4,0.4-2.8,0.6-4.2,0.5L162.8,54.5z M164,38.7h7.2c1.3,0,2.6-0.2,3.9-0.6c1-0.4,1.9-0.9,2.6-1.6c0.7-0.6,1.2-1.4,1.5-2.2
	c0.3-0.8,0.5-1.6,0.5-2.4c0.1-1.9-0.7-3.8-2.1-5c-1.4-1.2-3.6-1.7-6.5-1.7h-7V38.7z M164,39.6v13.9h8.2c2.8,0,5-0.6,6.5-1.8
	c1.6-1.3,2.4-3.3,2.3-5.3c0-1-0.2-1.9-0.6-2.8c-0.4-0.8-1-1.6-1.7-2.1c-0.8-0.6-1.8-1.1-2.8-1.4c-1.2-0.3-2.4-0.5-3.7-0.5L164,39.6
	L164,39.6z"/>
<path id="Path_3" class="st0" d="M215.1,39.4c0,2.2-0.3,4.4-1,6.4c-0.6,1.8-1.6,3.5-2.9,4.9c-1.3,1.3-2.8,2.4-4.5,3.1
	c-3.7,1.4-7.8,1.4-11.5,0c-1.7-0.7-3.2-1.8-4.5-3.1c-1.3-1.4-2.3-3.1-2.9-4.9c-0.7-2.1-1.1-4.2-1-6.4c0-2.2,0.3-4.3,1-6.4
	c0.6-1.8,1.6-3.5,2.9-4.9c1.3-1.3,2.8-2.4,4.5-3.1c1.8-0.7,3.8-1.1,5.7-1.1c2,0,3.9,0.3,5.8,1.1c1.7,0.7,3.2,1.8,4.5,3.1
	c1.3,1.4,2.3,3.1,2.9,4.9C214.8,35,215.1,37.2,215.1,39.4 M213.8,39.4c0-2.1-0.3-4.1-0.9-6.1c-0.6-1.7-1.5-3.2-2.7-4.6
	c-1.1-1.2-2.5-2.2-4.1-2.9c-3.4-1.3-7.1-1.3-10.5,0c-1.6,0.6-3,1.6-4.1,2.9c-1.2,1.3-2.1,2.9-2.7,4.6c-0.7,2-1,4-1,6.1
	c0,2.1,0.3,4.1,1,6.1c0.6,1.7,1.5,3.2,2.7,4.5c1.1,1.2,2.5,2.2,4.1,2.8c3.4,1.3,7.1,1.3,10.5,0c1.6-0.6,3-1.6,4.1-2.8
	c1.2-1.3,2.1-2.9,2.7-4.5C213.6,43.5,213.9,41.4,213.8,39.4"/>
<path id="Path_4" class="st0" d="M248,39.4c0,2.2-0.3,4.4-1,6.4c-0.6,1.8-1.6,3.5-2.9,4.9c-1.3,1.3-2.8,2.4-4.5,3.1
	c-3.7,1.4-7.8,1.4-11.5,0c-1.7-0.7-3.2-1.8-4.5-3.1c-1.3-1.4-2.3-3.1-2.9-4.9c-0.7-2.1-1.1-4.2-1-6.4c0-2.2,0.3-4.3,1-6.4
	c0.6-1.8,1.6-3.5,2.9-4.9c1.3-1.3,2.8-2.4,4.5-3.1c1.8-0.7,3.8-1.1,5.7-1.1c2,0,3.9,0.3,5.8,1.1c1.7,0.7,3.2,1.8,4.5,3.1
	c1.3,1.4,2.3,3.1,2.9,4.9C247.7,35,248,37.2,248,39.4 M246.7,39.4c0-2.1-0.3-4.1-0.9-6.1c-0.6-1.7-1.5-3.2-2.7-4.6
	c-1.1-1.2-2.5-2.2-4.1-2.9c-3.4-1.3-7.1-1.3-10.5,0c-1.6,0.6-3,1.6-4.1,2.9c-1.2,1.3-2.1,2.9-2.7,4.6c-0.7,2-1,4-1,6.1
	c0,2.1,0.3,4.1,1,6.1c0.6,1.7,1.5,3.2,2.7,4.5c1.1,1.2,2.5,2.2,4.1,2.8c3.4,1.3,7.1,1.3,10.5,0c1.6-0.6,3-1.6,4.1-2.8
	c1.2-1.3,2.1-2.9,2.7-4.5C246.4,43.5,246.8,41.4,246.7,39.4"/>
<path id="Path_5" class="st0" d="M255.7,38.6h1.9c0.3,0,0.5,0,0.7,0c0.2,0,0.4,0,0.5-0.1c0.2-0.1,0.3-0.1,0.5-0.2
	c0.2-0.1,0.3-0.2,0.4-0.4l13.4-13.2c0.1-0.1,0.3-0.3,0.5-0.4c0.2-0.1,0.3-0.1,0.5-0.1h0.9l-14.1,13.9c-0.2,0.2-0.4,0.4-0.7,0.6
	c-0.2,0.1-0.4,0.2-0.7,0.3c0.3,0.1,0.5,0.2,0.7,0.3c0.2,0.2,0.4,0.3,0.6,0.6l15,14.7H275c-0.2,0-0.4,0-0.6-0.1
	c-0.1-0.1-0.3-0.2-0.4-0.3L260,40.4c-0.2-0.2-0.3-0.3-0.4-0.4c-0.1-0.1-0.3-0.2-0.4-0.3c-0.2-0.1-0.4-0.1-0.6-0.2
	c-0.3,0-0.6-0.1-0.9-0.1h-2v15h-1.2V24.2h1.2L255.7,38.6L255.7,38.6z"/>
<rect id="Rectangle_18" x="280.2" y="24.2" class="st0" width="1.2" height="30.3"/>
<path id="Path_6" class="st0" d="M290.8,24.3c0.1,0.1,0.2,0.1,0.2,0.2l20.7,28c0-0.1,0-0.3,0-0.4V24.2h1v30.3h-0.5
	c-0.2,0-0.4-0.1-0.5-0.3l-20.8-28.1c0,0.1,0,0.3,0,0.4c0,0.1,0,0.3,0,0.4v27.6h-1V24.2h0.5C290.6,24.2,290.7,24.2,290.8,24.3"/>
<path id="Path_7" class="st0" d="M340.5,54c-4,1.3-8.3,1.2-12.3-0.2c-3.7-1.3-6.6-4.3-7.9-8c-0.7-2.1-1.1-4.2-1.1-6.4
	c0-2.2,0.3-4.4,1-6.4c0.6-1.8,1.7-3.5,3-4.9c1.3-1.4,3-2.4,4.7-3.1c2-0.8,4.1-1.1,6.3-1.1c1.1,0,2.1,0.1,3.1,0.2
	c0.9,0.1,1.8,0.4,2.7,0.7c0.8,0.3,1.6,0.7,2.3,1.1c0.7,0.5,1.4,1,2.1,1.6l-0.3,0.5c-0.1,0.2-0.3,0.2-0.5,0.2
	c-0.3-0.1-0.6-0.3-0.8-0.6c-0.5-0.4-1.1-0.8-1.7-1.1c-0.9-0.4-1.8-0.8-2.8-1c-3.3-0.8-6.7-0.6-9.9,0.5c-1.6,0.6-3.1,1.6-4.4,2.9
	c-1.2,1.3-2.2,2.9-2.8,4.6c-0.7,2-1,4-1,6.1c0,2.1,0.3,4.1,1,6.1c0.6,1.7,1.5,3.3,2.8,4.6c1.2,1.3,2.8,2.3,4.4,2.9
	c1.9,0.7,3.9,1,5.9,1c0.9,0,1.9-0.1,2.8-0.2c0.8-0.1,1.6-0.3,2.4-0.6c0.8-0.2,1.5-0.5,2.2-0.9c0.7-0.3,1.4-0.7,2.2-1.2v-8.9h-6.4
	c-0.1,0-0.2,0-0.3-0.1c-0.1-0.1-0.1-0.1-0.1-0.2v-0.6h7.9v10.4C343.8,52.6,342.2,53.4,340.5,54"/>
<path id="Path_8" class="st1" d="M43.8,43v11.9h-6.4V23.7h9.8c1.9,0,3.8,0.2,5.6,0.7c1.4,0.4,2.7,1,3.8,1.9c1,0.8,1.7,1.7,2.2,2.9
	c0.5,1.2,0.7,2.4,0.7,3.7c0,1-0.1,2-0.4,2.9c-0.3,0.9-0.7,1.8-1.3,2.5c-0.6,0.8-1.3,1.5-2.1,2c-0.9,0.6-1.8,1.1-2.8,1.4
	c0.4,0.2,0.8,0.5,1.2,0.8c0.4,0.3,0.7,0.7,1,1.1l7.3,11.2h-5.8c-1,0.1-1.9-0.4-2.4-1.2l-5.9-9.6c-0.2-0.3-0.5-0.6-0.8-0.8
	C46.9,43.1,46.4,43,46,43L43.8,43L43.8,43z M43.8,38.5h3.3c0.9,0,1.8-0.1,2.7-0.4c0.7-0.2,1.3-0.6,1.9-1.1c0.5-0.5,0.8-1,1.1-1.6
	c0.2-0.7,0.4-1.4,0.3-2.1c0.1-1.3-0.5-2.6-1.5-3.4c-1.3-0.9-2.9-1.3-4.5-1.2h-3.3L43.8,38.5L43.8,38.5z"/>
<path id="Path_9" class="st1" d="M94.1,39.3c0,2.2-0.4,4.3-1.2,6.3c-0.7,1.9-1.8,3.6-3.2,5c-1.4,1.4-3.1,2.6-5,3.3
	c-4.2,1.6-8.9,1.6-13.1,0c-1.9-0.8-3.6-1.9-5-3.3c-1.4-1.4-2.5-3.2-3.2-5c-1.5-4.1-1.5-8.6,0-12.7c0.7-1.9,1.8-3.6,3.3-5
	c1.4-1.4,3.2-2.6,5-3.3c4.2-1.6,8.9-1.6,13.1,0c3.8,1.5,6.8,4.6,8.3,8.4C93.8,35,94.2,37.2,94.1,39.3 M87.6,39.3
	c0-1.5-0.2-3-0.6-4.4c-0.4-1.2-1-2.3-1.9-3.3c-0.8-0.9-1.8-1.6-2.9-2.1c-2.5-1-5.3-1-7.8,0c-1.1,0.5-2.1,1.2-3,2.1
	c-0.8,1-1.5,2.1-1.9,3.3c-0.4,1.4-0.7,2.9-0.6,4.4c0,1.5,0.2,3,0.6,4.4c0.4,1.2,1,2.3,1.9,3.3c0.8,0.9,1.8,1.6,3,2.1
	c2.5,1,5.3,1,7.8,0c1.1-0.5,2.1-1.2,2.9-2.1c0.8-1,1.5-2.1,1.9-3.3C87.4,42.3,87.6,40.8,87.6,39.3"/>
<path id="Path_10" class="st1" d="M102.2,23.8c0.2,0,0.4,0.1,0.5,0.1c0.2,0.1,0.3,0.2,0.5,0.3c0.2,0.2,0.3,0.3,0.5,0.5l15.6,19.9
	c-0.1-0.5-0.1-1.1-0.1-1.6c0-0.5,0-1,0-1.5V23.7h5.7v31.1h-3.3c-0.4,0-0.9-0.1-1.3-0.2c-0.4-0.2-0.7-0.5-1-0.9l-15.5-19.7
	c0,0.5,0.1,1,0.1,1.5c0,0.5,0,0.9,0,1.3v18h-5.7V23.7h3.4C101.8,23.7,102,23.8,102.2,23.8"/>
<path id="Path_11" class="st1" d="M158,54.9h-5c-0.5,0-1-0.1-1.4-0.4c-0.3-0.3-0.6-0.6-0.8-1l-2.1-5.9h-12.4l-2.1,5.9
	c-0.2,0.4-0.4,0.7-0.8,1c-0.4,0.3-0.9,0.5-1.4,0.4h-5l12.2-31.1h6.6L158,54.9z M137.9,43.1h9.3l-3.4-9.5c-0.2-0.5-0.4-1.1-0.6-1.8
	c-0.2-0.7-0.4-1.4-0.7-2.2c-0.2,0.8-0.4,1.5-0.6,2.2s-0.4,1.3-0.6,1.8L137.9,43.1z"/>
<path id="Path_12" class="st2" d="M34.1,13.4l-9.6,0.2l0.2,4.3l9.7-0.1L34.1,13.4z M6.1,1.5L1.1,6.1l14.3,9.1l3-3.8L6.1,1.5
	 M23.9,19.1l-4.1,1.8l3.8,12.8l4.6-3.1L23.9,19.1 M15.5,16.8L0,27.1l5.1,5.3l13.4-11.7L15.5,16.8 M27.2,2.3L22.9,0l-3.1,11.1l4,1.5
	L27.2,2.3"/>
</svg>
