<svg id="Capa_1" data-name="Capa 1" xmlns="http://www.w3.org/2000/svg" viewBox="0 0 310.42 310.42"><defs><style>.cls-1{opacity:0.5;}</style></defs><g class="cls-1"><path d="M36.83,215A126,126,0,0,1,215,36.83c41.67,41.67,48,103.63,18.95,152,0,0-2.09,3.5.73,6.31l64.26,64.26c12.79,12.79,15.84,30.68,4.5,42l-2,2c-11.34,11.34-29.23,8.3-42-4.49L195.3,234.78a5.39,5.39,0,0,0-6.45-.87C140.46,262.94,78.5,256.63,36.83,215Zm154.88-23.25a93.07,93.07,0,1,0-131.62,0A93.17,93.17,0,0,0,191.71,191.71Z"/><path d="M183.67,118.42a13,13,0,0,0,12-18.06A81.93,81.93,0,0,0,88.38,56.88,13,13,0,1,0,98.51,80.82a55.9,55.9,0,0,1,73.18,29.67A13,13,0,0,0,183.67,118.42Z"/></g></svg>